<?xml version="1.0" encoding="utf-8" standalone="no"?>
<!DOCTYPE svg PUBLIC "-//W3C//DTD SVG 1.1//EN"
  "http://www.w3.org/Graphics/SVG/1.1/DTD/svg11.dtd">
<!-- Created with matplotlib (http://matplotlib.org/) -->
<svg height="432pt" version="1.1" viewBox="0 0 720 432" width="720pt" xmlns="http://www.w3.org/2000/svg" xmlns:xlink="http://www.w3.org/1999/xlink">
 <defs>
  <style type="text/css">
*{stroke-linecap:butt;stroke-linejoin:round;stroke-miterlimit:100000;}
  </style>
 </defs>
 <g id="figure_1">
  <g id="patch_1">
   <path d="M 0 432 
L 720 432 
L 720 0 
L 0 0 
z
" style="fill:#ffffff;"/>
  </g>
  <g id="axes_1">
   <g id="patch_2">
    <path d="M 86.4 358.56 
L 633.6 358.56 
L 633.6 51.84 
L 86.4 51.84 
z
" style="fill:#ffffff;"/>
   </g>
   <g id="matplotlib.axis_1">
    <g id="xtick_1">
     <g id="line2d_1">
      <path clip-path="url(#p2974a800f9)" d="M 86.4 358.56 
L 86.4 51.84 
" style="fill:none;stroke:#e6e6e6;stroke-linecap:round;stroke-width:1.6;"/>
     </g>
     <g id="line2d_2"/>
     <g id="text_1">
      <!-- 1965 -->
      <defs>
       <path d="M 49.75 54.046875 
L 41.015625 53.375 
Q 39.84375 58.546875 37.703125 60.890625 
Q 34.125 64.65625 28.90625 64.65625 
Q 24.703125 64.65625 21.53125 62.3125 
Q 17.390625 59.28125 14.984375 53.46875 
Q 12.59375 47.65625 12.5 36.921875 
Q 15.671875 41.75 20.265625 44.09375 
Q 24.859375 46.4375 29.890625 46.4375 
Q 38.671875 46.4375 44.84375 39.96875 
Q 51.03125 33.5 51.03125 23.25 
Q 51.03125 16.5 48.125 10.71875 
Q 45.21875 4.9375 40.140625 1.859375 
Q 35.0625 -1.21875 28.609375 -1.21875 
Q 17.625 -1.21875 10.6875 6.859375 
Q 3.765625 14.9375 3.765625 33.5 
Q 3.765625 54.25 11.421875 63.671875 
Q 18.109375 71.875 29.4375 71.875 
Q 37.890625 71.875 43.28125 67.140625 
Q 48.6875 62.40625 49.75 54.046875 
M 13.875 23.1875 
Q 13.875 18.65625 15.796875 14.5 
Q 17.71875 10.359375 21.1875 8.171875 
Q 24.65625 6 28.46875 6 
Q 34.03125 6 38.03125 10.484375 
Q 42.046875 14.984375 42.046875 22.703125 
Q 42.046875 30.125 38.078125 34.390625 
Q 34.125 38.671875 28.125 38.671875 
Q 22.171875 38.671875 18.015625 34.390625 
Q 13.875 30.125 13.875 23.1875 
" id="ArialMT-36"/>
       <path d="M 37.25 0 
L 28.46875 0 
L 28.46875 56 
Q 25.296875 52.984375 20.140625 49.953125 
Q 14.984375 46.921875 10.890625 45.40625 
L 10.890625 53.90625 
Q 18.265625 57.375 23.78125 62.296875 
Q 29.296875 67.234375 31.59375 71.875 
L 37.25 71.875 
z
" id="ArialMT-31"/>
       <path d="M 4.15625 18.75 
L 13.375 19.53125 
Q 14.40625 12.796875 18.140625 9.390625 
Q 21.875 6 27.15625 6 
Q 33.5 6 37.890625 10.78125 
Q 42.28125 15.578125 42.28125 23.484375 
Q 42.28125 31 38.0625 35.34375 
Q 33.84375 39.703125 27 39.703125 
Q 22.75 39.703125 19.328125 37.765625 
Q 15.921875 35.84375 13.96875 32.765625 
L 5.71875 33.84375 
L 12.640625 70.609375 
L 48.25 70.609375 
L 48.25 62.203125 
L 19.671875 62.203125 
L 15.828125 42.96875 
Q 22.265625 47.46875 29.34375 47.46875 
Q 38.71875 47.46875 45.15625 40.96875 
Q 51.609375 34.46875 51.609375 24.265625 
Q 51.609375 14.546875 45.953125 7.46875 
Q 39.0625 -1.21875 27.15625 -1.21875 
Q 17.390625 -1.21875 11.203125 4.25 
Q 5.03125 9.71875 4.15625 18.75 
" id="ArialMT-35"/>
       <path d="M 5.46875 16.546875 
L 13.921875 17.328125 
Q 14.984375 11.375 18.015625 8.6875 
Q 21.046875 6 25.78125 6 
Q 29.828125 6 32.875 7.859375 
Q 35.9375 9.71875 37.890625 12.8125 
Q 39.84375 15.921875 41.15625 21.1875 
Q 42.484375 26.46875 42.484375 31.9375 
Q 42.484375 32.515625 42.4375 33.6875 
Q 39.796875 29.5 35.234375 26.875 
Q 30.671875 24.265625 25.34375 24.265625 
Q 16.453125 24.265625 10.296875 30.703125 
Q 4.15625 37.15625 4.15625 47.703125 
Q 4.15625 58.59375 10.578125 65.234375 
Q 17 71.875 26.65625 71.875 
Q 33.640625 71.875 39.421875 68.109375 
Q 45.21875 64.359375 48.21875 57.390625 
Q 51.21875 50.4375 51.21875 37.25 
Q 51.21875 23.53125 48.234375 15.40625 
Q 45.265625 7.28125 39.375 3.03125 
Q 33.5 -1.21875 25.59375 -1.21875 
Q 17.1875 -1.21875 11.859375 3.4375 
Q 6.546875 8.109375 5.46875 16.546875 
M 41.453125 48.140625 
Q 41.453125 55.71875 37.421875 60.15625 
Q 33.40625 64.59375 27.734375 64.59375 
Q 21.875 64.59375 17.53125 59.8125 
Q 13.1875 55.03125 13.1875 47.40625 
Q 13.1875 40.578125 17.3125 36.296875 
Q 21.4375 32.03125 27.484375 32.03125 
Q 33.59375 32.03125 37.515625 36.296875 
Q 41.453125 40.578125 41.453125 48.140625 
" id="ArialMT-39"/>
      </defs>
      <g style="fill:#262626;" transform="translate(68.605 381.2125)scale(0.16 -0.16)">
       <use xlink:href="#ArialMT-31"/>
       <use x="55.615234375" xlink:href="#ArialMT-39"/>
       <use x="111.23046875" xlink:href="#ArialMT-36"/>
       <use x="166.845703125" xlink:href="#ArialMT-35"/>
      </g>
     </g>
    </g>
    <g id="xtick_2">
     <g id="line2d_3">
      <path clip-path="url(#p2974a800f9)" d="M 195.84 358.56 
L 195.84 51.84 
" style="fill:none;stroke:#e6e6e6;stroke-linecap:round;stroke-width:1.6;"/>
     </g>
     <g id="line2d_4"/>
     <g id="text_2">
      <!-- 1975 -->
      <defs>
       <path d="M 4.734375 62.203125 
L 4.734375 70.65625 
L 51.078125 70.65625 
L 51.078125 63.8125 
Q 44.234375 56.546875 37.515625 44.484375 
Q 30.8125 32.421875 27.15625 19.671875 
Q 24.515625 10.6875 23.78125 0 
L 14.75 0 
Q 14.890625 8.453125 18.0625 20.40625 
Q 21.234375 32.375 27.171875 43.484375 
Q 33.109375 54.59375 39.796875 62.203125 
z
" id="ArialMT-37"/>
      </defs>
      <g style="fill:#262626;" transform="translate(178.045 381.2125)scale(0.16 -0.16)">
       <use xlink:href="#ArialMT-31"/>
       <use x="55.615234375" xlink:href="#ArialMT-39"/>
       <use x="111.23046875" xlink:href="#ArialMT-37"/>
       <use x="166.845703125" xlink:href="#ArialMT-35"/>
      </g>
     </g>
    </g>
    <g id="xtick_3">
     <g id="line2d_5">
      <path clip-path="url(#p2974a800f9)" d="M 305.28 358.56 
L 305.28 51.84 
" style="fill:none;stroke:#e6e6e6;stroke-linecap:round;stroke-width:1.6;"/>
     </g>
     <g id="line2d_6"/>
     <g id="text_3">
      <!-- 1985 -->
      <defs>
       <path d="M 17.671875 38.8125 
Q 12.203125 40.828125 9.5625 44.53125 
Q 6.9375 48.25 6.9375 53.421875 
Q 6.9375 61.234375 12.546875 66.546875 
Q 18.171875 71.875 27.484375 71.875 
Q 36.859375 71.875 42.578125 66.421875 
Q 48.296875 60.984375 48.296875 53.171875 
Q 48.296875 48.1875 45.671875 44.5 
Q 43.0625 40.828125 37.75 38.8125 
Q 44.34375 36.671875 47.78125 31.875 
Q 51.21875 27.09375 51.21875 20.453125 
Q 51.21875 11.28125 44.71875 5.03125 
Q 38.234375 -1.21875 27.640625 -1.21875 
Q 17.046875 -1.21875 10.546875 5.046875 
Q 4.046875 11.328125 4.046875 20.703125 
Q 4.046875 27.6875 7.59375 32.390625 
Q 11.140625 37.109375 17.671875 38.8125 
M 15.921875 53.71875 
Q 15.921875 48.640625 19.1875 45.40625 
Q 22.46875 42.1875 27.6875 42.1875 
Q 32.765625 42.1875 36.015625 45.375 
Q 39.265625 48.578125 39.265625 53.21875 
Q 39.265625 58.0625 35.90625 61.359375 
Q 32.5625 64.65625 27.59375 64.65625 
Q 22.5625 64.65625 19.234375 61.421875 
Q 15.921875 58.203125 15.921875 53.71875 
M 13.09375 20.65625 
Q 13.09375 16.890625 14.875 13.375 
Q 16.65625 9.859375 20.171875 7.921875 
Q 23.6875 6 27.734375 6 
Q 34.03125 6 38.125 10.046875 
Q 42.234375 14.109375 42.234375 20.359375 
Q 42.234375 26.703125 38.015625 30.859375 
Q 33.796875 35.015625 27.4375 35.015625 
Q 21.234375 35.015625 17.15625 30.90625 
Q 13.09375 26.8125 13.09375 20.65625 
" id="ArialMT-38"/>
      </defs>
      <g style="fill:#262626;" transform="translate(287.485 381.2125)scale(0.16 -0.16)">
       <use xlink:href="#ArialMT-31"/>
       <use x="55.615234375" xlink:href="#ArialMT-39"/>
       <use x="111.23046875" xlink:href="#ArialMT-38"/>
       <use x="166.845703125" xlink:href="#ArialMT-35"/>
      </g>
     </g>
    </g>
    <g id="xtick_4">
     <g id="line2d_7">
      <path clip-path="url(#p2974a800f9)" d="M 414.72 358.56 
L 414.72 51.84 
" style="fill:none;stroke:#e6e6e6;stroke-linecap:round;stroke-width:1.6;"/>
     </g>
     <g id="line2d_8"/>
     <g id="text_4">
      <!-- 1995 -->
      <g style="fill:#262626;" transform="translate(396.925 381.2125)scale(0.16 -0.16)">
       <use xlink:href="#ArialMT-31"/>
       <use x="55.615234375" xlink:href="#ArialMT-39"/>
       <use x="111.23046875" xlink:href="#ArialMT-39"/>
       <use x="166.845703125" xlink:href="#ArialMT-35"/>
      </g>
     </g>
    </g>
    <g id="xtick_5">
     <g id="line2d_9">
      <path clip-path="url(#p2974a800f9)" d="M 524.16 358.56 
L 524.16 51.84 
" style="fill:none;stroke:#e6e6e6;stroke-linecap:round;stroke-width:1.6;"/>
     </g>
     <g id="line2d_10"/>
     <g id="text_5">
      <!-- 2005 -->
      <defs>
       <path d="M 50.34375 8.453125 
L 50.34375 0 
L 3.03125 0 
Q 2.9375 3.171875 4.046875 6.109375 
Q 5.859375 10.9375 9.828125 15.625 
Q 13.8125 20.3125 21.34375 26.46875 
Q 33.015625 36.03125 37.109375 41.625 
Q 41.21875 47.21875 41.21875 52.203125 
Q 41.21875 57.421875 37.46875 61 
Q 33.734375 64.59375 27.734375 64.59375 
Q 21.390625 64.59375 17.578125 60.78125 
Q 13.765625 56.984375 13.71875 50.25 
L 4.6875 51.171875 
Q 5.609375 61.28125 11.65625 66.578125 
Q 17.71875 71.875 27.9375 71.875 
Q 38.234375 71.875 44.234375 66.15625 
Q 50.25 60.453125 50.25 52 
Q 50.25 47.703125 48.484375 43.546875 
Q 46.734375 39.40625 42.65625 34.8125 
Q 38.578125 30.21875 29.109375 22.21875 
Q 21.1875 15.578125 18.9375 13.203125 
Q 16.703125 10.84375 15.234375 8.453125 
z
" id="ArialMT-32"/>
       <path d="M 4.15625 35.296875 
Q 4.15625 48 6.765625 55.734375 
Q 9.375 63.484375 14.515625 67.671875 
Q 19.671875 71.875 27.484375 71.875 
Q 33.25 71.875 37.59375 69.546875 
Q 41.9375 67.234375 44.765625 62.859375 
Q 47.609375 58.5 49.21875 52.21875 
Q 50.828125 45.953125 50.828125 35.296875 
Q 50.828125 22.703125 48.234375 14.96875 
Q 45.65625 7.234375 40.5 3 
Q 35.359375 -1.21875 27.484375 -1.21875 
Q 17.140625 -1.21875 11.234375 6.203125 
Q 4.15625 15.140625 4.15625 35.296875 
M 13.1875 35.296875 
Q 13.1875 17.671875 17.3125 11.828125 
Q 21.4375 6 27.484375 6 
Q 33.546875 6 37.671875 11.859375 
Q 41.796875 17.71875 41.796875 35.296875 
Q 41.796875 52.984375 37.671875 58.78125 
Q 33.546875 64.59375 27.390625 64.59375 
Q 21.34375 64.59375 17.71875 59.46875 
Q 13.1875 52.9375 13.1875 35.296875 
" id="ArialMT-30"/>
      </defs>
      <g style="fill:#262626;" transform="translate(506.365 381.2125)scale(0.16 -0.16)">
       <use xlink:href="#ArialMT-32"/>
       <use x="55.615234375" xlink:href="#ArialMT-30"/>
       <use x="111.23046875" xlink:href="#ArialMT-30"/>
       <use x="166.845703125" xlink:href="#ArialMT-35"/>
      </g>
     </g>
    </g>
    <g id="xtick_6">
     <g id="line2d_11">
      <path clip-path="url(#p2974a800f9)" d="M 633.6 358.56 
L 633.6 51.84 
" style="fill:none;stroke:#e6e6e6;stroke-linecap:round;stroke-width:1.6;"/>
     </g>
     <g id="line2d_12"/>
     <g id="text_6">
      <!-- 2015 -->
      <g style="fill:#262626;" transform="translate(615.805 381.2125)scale(0.16 -0.16)">
       <use xlink:href="#ArialMT-32"/>
       <use x="55.615234375" xlink:href="#ArialMT-30"/>
       <use x="111.23046875" xlink:href="#ArialMT-31"/>
       <use x="166.845703125" xlink:href="#ArialMT-35"/>
      </g>
     </g>
    </g>
   </g>
   <g id="matplotlib.axis_2">
    <g id="ytick_1">
     <g id="line2d_13">
      <path clip-path="url(#p2974a800f9)" d="M 86.4 358.56 
L 633.6 358.56 
" style="fill:none;stroke:#e6e6e6;stroke-linecap:round;stroke-width:1.6;"/>
     </g>
     <g id="line2d_14"/>
     <g id="text_7">
      <!-- 0 -->
      <g style="fill:#262626;" transform="translate(66.3025 362.69625)scale(0.16 -0.16)">
       <use xlink:href="#ArialMT-30"/>
      </g>
     </g>
    </g>
    <g id="ytick_2">
     <g id="line2d_15">
      <path clip-path="url(#p2974a800f9)" d="M 86.4 297.216 
L 633.6 297.216 
" style="fill:none;stroke:#e6e6e6;stroke-linecap:round;stroke-width:1.6;"/>
     </g>
     <g id="line2d_16"/>
     <g id="text_8">
      <!-- 10 -->
      <g style="fill:#262626;" transform="translate(57.405 301.35225)scale(0.16 -0.16)">
       <use xlink:href="#ArialMT-31"/>
       <use x="55.615234375" xlink:href="#ArialMT-30"/>
      </g>
     </g>
    </g>
    <g id="ytick_3">
     <g id="line2d_17">
      <path clip-path="url(#p2974a800f9)" d="M 86.4 235.872 
L 633.6 235.872 
" style="fill:none;stroke:#e6e6e6;stroke-linecap:round;stroke-width:1.6;"/>
     </g>
     <g id="line2d_18"/>
     <g id="text_9">
      <!-- 20 -->
      <g style="fill:#262626;" transform="translate(57.405 240.00825)scale(0.16 -0.16)">
       <use xlink:href="#ArialMT-32"/>
       <use x="55.615234375" xlink:href="#ArialMT-30"/>
      </g>
     </g>
    </g>
    <g id="ytick_4">
     <g id="line2d_19">
      <path clip-path="url(#p2974a800f9)" d="M 86.4 174.528 
L 633.6 174.528 
" style="fill:none;stroke:#e6e6e6;stroke-linecap:round;stroke-width:1.6;"/>
     </g>
     <g id="line2d_20"/>
     <g id="text_10">
      <!-- 30 -->
      <defs>
       <path d="M 4.203125 18.890625 
L 12.984375 20.0625 
Q 14.5 12.59375 18.140625 9.296875 
Q 21.78125 6 27 6 
Q 33.203125 6 37.46875 10.296875 
Q 41.75 14.59375 41.75 20.953125 
Q 41.75 27 37.796875 30.921875 
Q 33.84375 34.859375 27.734375 34.859375 
Q 25.25 34.859375 21.53125 33.890625 
L 22.515625 41.609375 
Q 23.390625 41.5 23.921875 41.5 
Q 29.546875 41.5 34.03125 44.421875 
Q 38.53125 47.359375 38.53125 53.46875 
Q 38.53125 58.296875 35.25 61.46875 
Q 31.984375 64.65625 26.8125 64.65625 
Q 21.6875 64.65625 18.265625 61.421875 
Q 14.84375 58.203125 13.875 51.765625 
L 5.078125 53.328125 
Q 6.6875 62.15625 12.390625 67.015625 
Q 18.109375 71.875 26.609375 71.875 
Q 32.46875 71.875 37.390625 69.359375 
Q 42.328125 66.84375 44.9375 62.5 
Q 47.5625 58.15625 47.5625 53.265625 
Q 47.5625 48.640625 45.0625 44.828125 
Q 42.578125 41.015625 37.703125 38.765625 
Q 44.046875 37.3125 47.5625 32.6875 
Q 51.078125 28.078125 51.078125 21.140625 
Q 51.078125 11.765625 44.234375 5.25 
Q 37.40625 -1.265625 26.953125 -1.265625 
Q 17.53125 -1.265625 11.296875 4.34375 
Q 5.078125 9.96875 4.203125 18.890625 
" id="ArialMT-33"/>
      </defs>
      <g style="fill:#262626;" transform="translate(57.405 178.66425)scale(0.16 -0.16)">
       <use xlink:href="#ArialMT-33"/>
       <use x="55.615234375" xlink:href="#ArialMT-30"/>
      </g>
     </g>
    </g>
    <g id="ytick_5">
     <g id="line2d_21">
      <path clip-path="url(#p2974a800f9)" d="M 86.4 113.184 
L 633.6 113.184 
" style="fill:none;stroke:#e6e6e6;stroke-linecap:round;stroke-width:1.6;"/>
     </g>
     <g id="line2d_22"/>
     <g id="text_11">
      <!-- 40 -->
      <defs>
       <path d="M 32.328125 0 
L 32.328125 17.140625 
L 1.265625 17.140625 
L 1.265625 25.203125 
L 33.9375 71.578125 
L 41.109375 71.578125 
L 41.109375 25.203125 
L 50.78125 25.203125 
L 50.78125 17.140625 
L 41.109375 17.140625 
L 41.109375 0 
z
M 32.328125 25.203125 
L 32.328125 57.46875 
L 9.90625 25.203125 
z
" id="ArialMT-34"/>
      </defs>
      <g style="fill:#262626;" transform="translate(57.405 117.32025)scale(0.16 -0.16)">
       <use xlink:href="#ArialMT-34"/>
       <use x="55.615234375" xlink:href="#ArialMT-30"/>
      </g>
     </g>
    </g>
    <g id="ytick_6">
     <g id="line2d_23">
      <path clip-path="url(#p2974a800f9)" d="M 86.4 51.84 
L 633.6 51.84 
" style="fill:none;stroke:#e6e6e6;stroke-linecap:round;stroke-width:1.6;"/>
     </g>
     <g id="line2d_24"/>
     <g id="text_12">
      <!-- 50 -->
      <g style="fill:#262626;" transform="translate(57.405 55.97625)scale(0.16 -0.16)">
       <use xlink:href="#ArialMT-35"/>
       <use x="55.615234375" xlink:href="#ArialMT-30"/>
      </g>
     </g>
    </g>
    <g id="text_13">
     <!-- Percent who smoke -->
     <defs>
      <path d="M 16.15625 0 
L 0.296875 51.859375 
L 9.375 51.859375 
L 17.625 21.921875 
L 20.703125 10.796875 
Q 20.90625 11.625 23.390625 21.484375 
L 31.640625 51.859375 
L 40.671875 51.859375 
L 48.4375 21.78125 
L 51.03125 11.859375 
L 54 21.875 
L 62.890625 51.859375 
L 71.4375 51.859375 
L 55.21875 0 
L 46.09375 0 
L 37.84375 31.0625 
L 35.84375 39.890625 
L 25.34375 0 
z
" id="ArialMT-77"/>
      <path d="M 42.09375 16.703125 
L 51.171875 15.578125 
Q 49.03125 7.625 43.21875 3.21875 
Q 37.40625 -1.171875 28.375 -1.171875 
Q 17 -1.171875 10.328125 5.828125 
Q 3.65625 12.84375 3.65625 25.484375 
Q 3.65625 38.578125 10.390625 45.796875 
Q 17.140625 53.03125 27.875 53.03125 
Q 38.28125 53.03125 44.875 45.953125 
Q 51.46875 38.875 51.46875 26.03125 
Q 51.46875 25.25 51.421875 23.6875 
L 12.75 23.6875 
Q 13.234375 15.140625 17.578125 10.59375 
Q 21.921875 6.0625 28.421875 6.0625 
Q 33.25 6.0625 36.671875 8.59375 
Q 40.09375 11.140625 42.09375 16.703125 
M 13.234375 30.90625 
L 42.1875 30.90625 
Q 41.609375 37.453125 38.875 40.71875 
Q 34.671875 45.796875 27.984375 45.796875 
Q 21.921875 45.796875 17.796875 41.75 
Q 13.671875 37.703125 13.234375 30.90625 
" id="ArialMT-65"/>
      <path d="M 6.59375 0 
L 6.59375 51.859375 
L 14.453125 51.859375 
L 14.453125 44.578125 
Q 16.890625 48.390625 20.9375 50.703125 
Q 25 53.03125 30.171875 53.03125 
Q 35.9375 53.03125 39.625 50.640625 
Q 43.3125 48.25 44.828125 43.953125 
Q 50.984375 53.03125 60.84375 53.03125 
Q 68.5625 53.03125 72.703125 48.75 
Q 76.859375 44.484375 76.859375 35.59375 
L 76.859375 0 
L 68.109375 0 
L 68.109375 32.671875 
Q 68.109375 37.9375 67.25 40.25 
Q 66.40625 42.578125 64.15625 43.984375 
Q 61.921875 45.40625 58.890625 45.40625 
Q 53.421875 45.40625 49.796875 41.765625 
Q 46.1875 38.140625 46.1875 30.125 
L 46.1875 0 
L 37.40625 0 
L 37.40625 33.6875 
Q 37.40625 39.546875 35.25 42.46875 
Q 33.109375 45.40625 28.21875 45.40625 
Q 24.515625 45.40625 21.359375 43.453125 
Q 18.21875 41.5 16.796875 37.734375 
Q 15.375 33.984375 15.375 26.90625 
L 15.375 0 
z
" id="ArialMT-6d"/>
      <path d="M 6.59375 0 
L 6.59375 71.578125 
L 15.375 71.578125 
L 15.375 45.90625 
Q 21.53125 53.03125 30.90625 53.03125 
Q 36.671875 53.03125 40.921875 50.75 
Q 45.171875 48.484375 47 44.484375 
Q 48.828125 40.484375 48.828125 32.859375 
L 48.828125 0 
L 40.046875 0 
L 40.046875 32.859375 
Q 40.046875 39.453125 37.1875 42.453125 
Q 34.328125 45.453125 29.109375 45.453125 
Q 25.203125 45.453125 21.75 43.421875 
Q 18.3125 41.40625 16.84375 37.9375 
Q 15.375 34.46875 15.375 28.375 
L 15.375 0 
z
" id="ArialMT-68"/>
      <path d="M 3.328125 25.921875 
Q 3.328125 40.328125 11.328125 47.265625 
Q 18.015625 53.03125 27.640625 53.03125 
Q 38.328125 53.03125 45.109375 46.015625 
Q 51.90625 39.015625 51.90625 26.65625 
Q 51.90625 16.65625 48.90625 10.90625 
Q 45.90625 5.171875 40.15625 2 
Q 34.421875 -1.171875 27.640625 -1.171875 
Q 16.75 -1.171875 10.03125 5.8125 
Q 3.328125 12.796875 3.328125 25.921875 
M 12.359375 25.921875 
Q 12.359375 15.96875 16.703125 11.015625 
Q 21.046875 6.0625 27.640625 6.0625 
Q 34.1875 6.0625 38.53125 11.03125 
Q 42.875 16.015625 42.875 26.21875 
Q 42.875 35.84375 38.5 40.796875 
Q 34.125 45.75 27.640625 45.75 
Q 21.046875 45.75 16.703125 40.8125 
Q 12.359375 35.890625 12.359375 25.921875 
" id="ArialMT-6f"/>
      <path d="M 6.640625 0 
L 6.640625 71.578125 
L 15.4375 71.578125 
L 15.4375 30.765625 
L 36.234375 51.859375 
L 47.609375 51.859375 
L 27.78125 32.625 
L 49.609375 0 
L 38.765625 0 
L 21.625 26.515625 
L 15.4375 20.5625 
L 15.4375 0 
z
" id="ArialMT-6b"/>
      <path d="M 40.4375 19 
L 49.078125 17.875 
Q 47.65625 8.9375 41.8125 3.875 
Q 35.984375 -1.171875 27.484375 -1.171875 
Q 16.84375 -1.171875 10.375 5.78125 
Q 3.90625 12.75 3.90625 25.734375 
Q 3.90625 34.125 6.6875 40.421875 
Q 9.46875 46.734375 15.15625 49.875 
Q 20.84375 53.03125 27.546875 53.03125 
Q 35.984375 53.03125 41.359375 48.75 
Q 46.734375 44.484375 48.25 36.625 
L 39.703125 35.296875 
Q 38.484375 40.53125 35.375 43.15625 
Q 32.28125 45.796875 27.875 45.796875 
Q 21.234375 45.796875 17.078125 41.03125 
Q 12.9375 36.28125 12.9375 25.984375 
Q 12.9375 15.53125 16.9375 10.796875 
Q 20.953125 6.0625 27.390625 6.0625 
Q 32.5625 6.0625 36.03125 9.234375 
Q 39.5 12.40625 40.4375 19 
" id="ArialMT-63"/>
      <path d="M 3.078125 15.484375 
L 11.765625 16.84375 
Q 12.5 11.625 15.84375 8.84375 
Q 19.1875 6.0625 25.203125 6.0625 
Q 31.25 6.0625 34.171875 8.515625 
Q 37.109375 10.984375 37.109375 14.3125 
Q 37.109375 17.28125 34.515625 19 
Q 32.71875 20.171875 25.53125 21.96875 
Q 15.875 24.421875 12.140625 26.203125 
Q 8.40625 27.984375 6.46875 31.125 
Q 4.546875 34.28125 4.546875 38.09375 
Q 4.546875 41.546875 6.125 44.5 
Q 7.71875 47.46875 10.453125 49.421875 
Q 12.5 50.921875 16.03125 51.96875 
Q 19.578125 53.03125 23.640625 53.03125 
Q 29.734375 53.03125 34.34375 51.265625 
Q 38.96875 49.515625 41.15625 46.5 
Q 43.359375 43.5 44.1875 38.484375 
L 35.59375 37.3125 
Q 35.015625 41.3125 32.203125 43.546875 
Q 29.390625 45.796875 24.265625 45.796875 
Q 18.21875 45.796875 15.625 43.796875 
Q 13.03125 41.796875 13.03125 39.109375 
Q 13.03125 37.40625 14.109375 36.03125 
Q 15.1875 34.625 17.484375 33.6875 
Q 18.796875 33.203125 25.25 31.453125 
Q 34.578125 28.953125 38.25 27.359375 
Q 41.9375 25.78125 44.03125 22.75 
Q 46.140625 19.734375 46.140625 15.234375 
Q 46.140625 10.84375 43.578125 6.953125 
Q 41.015625 3.078125 36.171875 0.953125 
Q 31.34375 -1.171875 25.25 -1.171875 
Q 15.140625 -1.171875 9.84375 3.03125 
Q 4.546875 7.234375 3.078125 15.484375 
" id="ArialMT-73"/>
      <path d="M 25.78125 7.859375 
L 27.046875 0.09375 
Q 23.34375 -0.6875 20.40625 -0.6875 
Q 15.625 -0.6875 12.984375 0.828125 
Q 10.359375 2.34375 9.28125 4.8125 
Q 8.203125 7.28125 8.203125 15.1875 
L 8.203125 45.015625 
L 1.765625 45.015625 
L 1.765625 51.859375 
L 8.203125 51.859375 
L 8.203125 64.703125 
L 16.9375 69.96875 
L 16.9375 51.859375 
L 25.78125 51.859375 
L 25.78125 45.015625 
L 16.9375 45.015625 
L 16.9375 14.703125 
Q 16.9375 10.9375 17.40625 9.859375 
Q 17.875 8.796875 18.921875 8.15625 
Q 19.96875 7.515625 21.921875 7.515625 
Q 23.390625 7.515625 25.78125 7.859375 
" id="ArialMT-74"/>
      <path d="M 6.5 0 
L 6.5 51.859375 
L 14.40625 51.859375 
L 14.40625 44 
Q 17.4375 49.515625 20 51.265625 
Q 22.5625 53.03125 25.640625 53.03125 
Q 30.078125 53.03125 34.671875 50.203125 
L 31.640625 42.046875 
Q 28.421875 43.953125 25.203125 43.953125 
Q 22.3125 43.953125 20.015625 42.21875 
Q 17.71875 40.484375 16.75 37.40625 
Q 15.28125 32.71875 15.28125 27.15625 
L 15.28125 0 
z
" id="ArialMT-72"/>
      <path id="ArialMT-20"/>
      <path d="M 6.59375 0 
L 6.59375 51.859375 
L 14.5 51.859375 
L 14.5 44.484375 
Q 20.21875 53.03125 31 53.03125 
Q 35.6875 53.03125 39.625 51.34375 
Q 43.5625 49.65625 45.515625 46.921875 
Q 47.46875 44.1875 48.25 40.4375 
Q 48.734375 37.984375 48.734375 31.890625 
L 48.734375 0 
L 39.9375 0 
L 39.9375 31.546875 
Q 39.9375 36.921875 38.90625 39.578125 
Q 37.890625 42.234375 35.28125 43.8125 
Q 32.671875 45.40625 29.15625 45.40625 
Q 23.53125 45.40625 19.453125 41.84375 
Q 15.375 38.28125 15.375 28.328125 
L 15.375 0 
z
" id="ArialMT-6e"/>
      <path d="M 7.71875 0 
L 7.71875 71.578125 
L 34.71875 71.578125 
Q 41.84375 71.578125 45.609375 70.90625 
Q 50.875 70.015625 54.4375 67.546875 
Q 58.015625 65.09375 60.1875 60.640625 
Q 62.359375 56.203125 62.359375 50.875 
Q 62.359375 41.75 56.546875 35.421875 
Q 50.734375 29.109375 35.546875 29.109375 
L 17.1875 29.109375 
L 17.1875 0 
z
M 17.1875 37.546875 
L 35.6875 37.546875 
Q 44.875 37.546875 48.734375 40.96875 
Q 52.59375 44.390625 52.59375 50.59375 
Q 52.59375 55.078125 50.3125 58.265625 
Q 48.046875 61.46875 44.34375 62.5 
Q 41.9375 63.140625 35.5 63.140625 
L 17.1875 63.140625 
z
" id="ArialMT-50"/>
     </defs>
     <g style="fill:#262626;" transform="translate(48.43 293.0125)rotate(-90.0)scale(0.2 -0.2)">
      <use xlink:href="#ArialMT-50"/>
      <use x="66.69921875" xlink:href="#ArialMT-65"/>
      <use x="122.314453125" xlink:href="#ArialMT-72"/>
      <use x="155.615234375" xlink:href="#ArialMT-63"/>
      <use x="205.615234375" xlink:href="#ArialMT-65"/>
      <use x="261.23046875" xlink:href="#ArialMT-6e"/>
      <use x="316.845703125" xlink:href="#ArialMT-74"/>
      <use x="344.62890625" xlink:href="#ArialMT-20"/>
      <use x="372.412109375" xlink:href="#ArialMT-77"/>
      <use x="444.62890625" xlink:href="#ArialMT-68"/>
      <use x="500.244140625" xlink:href="#ArialMT-6f"/>
      <use x="555.859375" xlink:href="#ArialMT-20"/>
      <use x="583.642578125" xlink:href="#ArialMT-73"/>
      <use x="633.642578125" xlink:href="#ArialMT-6d"/>
      <use x="716.943359375" xlink:href="#ArialMT-6f"/>
      <use x="772.55859375" xlink:href="#ArialMT-6b"/>
      <use x="822.55859375" xlink:href="#ArialMT-65"/>
     </g>
    </g>
   </g>
   <g id="line2d_25">
    <path clip-path="url(#p2974a800f9)" d="M 86.4 98.46144 
L 141.12 129.13344 
L 184.896 130.97376 
L 228.672 149.37696 
L 250.56 154.89792 
L 283.392 161.64576 
L 305.28 173.91456 
L 327.168 181.88928 
L 360 202.1328 
L 392.832 205.2 
L 414.72 207.04032 
L 436.608 207.04032 
L 458.496 214.4016 
L 480.384 218.69568 
L 491.328 220.536 
L 502.272 226.05696 
L 513.216 230.35104 
L 524.16 230.35104 
L 535.104 230.96448 
L 546.048 237.09888 
L 556.992 232.19136 
L 567.936 232.19136 
L 578.88 240.16608 
L 589.824 242.0064 
L 600.768 247.52736 
L 611.712 249.36768 
L 622.656 255.50208 
L 633.6 265.93056 
" style="fill:none;stroke:#0072b2;stroke-linecap:round;stroke-width:5.0;"/>
   </g>
   <g id="patch_3">
    <path d="M 86.4 358.56 
L 86.4 51.84 
" style="fill:none;stroke:#e6e6e6;stroke-linecap:square;stroke-linejoin:miter;"/>
   </g>
   <g id="patch_4">
    <path d="M 86.4 358.56 
L 633.6 358.56 
" style="fill:none;stroke:#e6e6e6;stroke-linecap:square;stroke-linejoin:miter;"/>
   </g>
   <g id="patch_5">
    <path d="M 151.064 188.213539 
Q 151.064 168.966261 151.064 149.718983 
L 148.064 149.718983 
Q 150.064 143.720291 152.064 137.7216 
Q 154.064 143.720291 156.064 149.718983 
L 153.064 149.718983 
Q 153.064 168.966261 153.064 188.213539 
L 151.064 188.213539 
z
" style="fill:#999999;stroke:#999999;stroke-linecap:round;stroke-width:0.48;"/>
   </g>
   <g id="text_14">
    <g id="patch_6">
     <path d="M 116.056656 221.945531 
L 188.071344 221.945531 
L 188.071344 188.454469 
L 116.056656 188.454469 
z
" style="fill:#ffffff;stroke:#ffffff;stroke-linejoin:miter;stroke-width:0.48;"/>
    </g>
    <!-- TV &amp; radio -->
    <defs>
     <path d="M 40.4375 6.390625 
Q 35.546875 2.25 31.03125 0.53125 
Q 26.515625 -1.171875 21.34375 -1.171875 
Q 12.796875 -1.171875 8.203125 3 
Q 3.609375 7.171875 3.609375 13.671875 
Q 3.609375 17.484375 5.34375 20.625 
Q 7.078125 23.78125 9.890625 25.6875 
Q 12.703125 27.59375 16.21875 28.5625 
Q 18.796875 29.25 24.03125 29.890625 
Q 34.671875 31.15625 39.703125 32.90625 
Q 39.75 34.71875 39.75 35.203125 
Q 39.75 40.578125 37.25 42.78125 
Q 33.890625 45.75 27.25 45.75 
Q 21.046875 45.75 18.09375 43.578125 
Q 15.140625 41.40625 13.71875 35.890625 
L 5.125 37.0625 
Q 6.296875 42.578125 8.984375 45.96875 
Q 11.671875 49.359375 16.75 51.1875 
Q 21.828125 53.03125 28.515625 53.03125 
Q 35.15625 53.03125 39.296875 51.46875 
Q 43.453125 49.90625 45.40625 47.53125 
Q 47.359375 45.171875 48.140625 41.546875 
Q 48.578125 39.3125 48.578125 33.453125 
L 48.578125 21.734375 
Q 48.578125 9.46875 49.140625 6.21875 
Q 49.703125 2.984375 51.375 0 
L 42.1875 0 
Q 40.828125 2.734375 40.4375 6.390625 
M 39.703125 26.03125 
Q 34.90625 24.078125 25.34375 22.703125 
Q 19.921875 21.921875 17.671875 20.9375 
Q 15.4375 19.96875 14.203125 18.09375 
Q 12.984375 16.21875 12.984375 13.921875 
Q 12.984375 10.40625 15.640625 8.0625 
Q 18.3125 5.71875 23.4375 5.71875 
Q 28.515625 5.71875 32.46875 7.9375 
Q 36.421875 10.15625 38.28125 14.015625 
Q 39.703125 17 39.703125 22.796875 
z
" id="ArialMT-61"/>
     <path d="M 40.234375 0 
L 40.234375 6.546875 
Q 35.296875 -1.171875 25.734375 -1.171875 
Q 19.53125 -1.171875 14.328125 2.25 
Q 9.125 5.671875 6.265625 11.796875 
Q 3.421875 17.921875 3.421875 25.875 
Q 3.421875 33.640625 6 39.96875 
Q 8.59375 46.296875 13.765625 49.65625 
Q 18.953125 53.03125 25.34375 53.03125 
Q 30.03125 53.03125 33.6875 51.046875 
Q 37.359375 49.078125 39.65625 45.90625 
L 39.65625 71.578125 
L 48.390625 71.578125 
L 48.390625 0 
z
M 12.453125 25.875 
Q 12.453125 15.921875 16.640625 10.984375 
Q 20.84375 6.0625 26.5625 6.0625 
Q 32.328125 6.0625 36.34375 10.765625 
Q 40.375 15.484375 40.375 25.140625 
Q 40.375 35.796875 36.265625 40.765625 
Q 32.171875 45.75 26.171875 45.75 
Q 20.3125 45.75 16.375 40.96875 
Q 12.453125 36.1875 12.453125 25.875 
" id="ArialMT-64"/>
     <path d="M 28.171875 0 
L 0.4375 71.578125 
L 10.6875 71.578125 
L 29.296875 19.578125 
Q 31.546875 13.328125 33.0625 7.859375 
Q 34.71875 13.71875 36.921875 19.578125 
L 56.25 71.578125 
L 65.921875 71.578125 
L 37.890625 0 
z
" id="ArialMT-56"/>
     <path d="M 6.640625 61.46875 
L 6.640625 71.578125 
L 15.4375 71.578125 
L 15.4375 61.46875 
z
M 6.640625 0 
L 6.640625 51.859375 
L 15.4375 51.859375 
L 15.4375 0 
z
" id="ArialMT-69"/>
     <path d="M 47.515625 8.453125 
Q 43.171875 3.609375 38.03125 1.1875 
Q 32.90625 -1.21875 26.953125 -1.21875 
Q 15.96875 -1.21875 9.515625 6.203125 
Q 4.296875 12.25 4.296875 19.734375 
Q 4.296875 26.375 8.5625 31.71875 
Q 12.84375 37.0625 21.34375 41.109375 
Q 16.5 46.6875 14.890625 50.140625 
Q 13.28125 53.609375 13.28125 56.84375 
Q 13.28125 63.28125 18.328125 68.03125 
Q 23.390625 72.796875 31.0625 72.796875 
Q 38.375 72.796875 43.03125 68.296875 
Q 47.703125 63.8125 47.703125 57.515625 
Q 47.703125 47.3125 34.1875 40.09375 
L 47.015625 23.734375 
Q 49.21875 28.03125 50.4375 33.6875 
L 59.578125 31.734375 
Q 57.234375 22.359375 53.21875 16.3125 
Q 58.15625 9.765625 64.40625 5.328125 
L 58.5 -1.65625 
Q 53.171875 1.765625 47.515625 8.453125 
M 29.640625 45.75 
Q 35.359375 49.125 37.03125 51.65625 
Q 38.71875 54.203125 38.71875 57.28125 
Q 38.71875 60.9375 36.390625 63.25 
Q 34.078125 65.578125 30.609375 65.578125 
Q 27.046875 65.578125 24.671875 63.28125 
Q 22.3125 60.984375 22.3125 57.671875 
Q 22.3125 56 23.171875 54.171875 
Q 24.03125 52.34375 25.734375 50.296875 
z
M 42 15.375 
L 25.875 35.359375 
Q 18.75 31.109375 16.25 27.46875 
Q 13.765625 23.828125 13.765625 20.265625 
Q 13.765625 15.921875 17.234375 11.234375 
Q 20.703125 6.546875 27.046875 6.546875 
Q 31 6.546875 35.21875 9 
Q 39.453125 11.46875 42 15.375 
" id="ArialMT-26"/>
     <path d="M 25.921875 0 
L 25.921875 63.140625 
L 2.34375 63.140625 
L 2.34375 71.578125 
L 59.078125 71.578125 
L 59.078125 63.140625 
L 35.40625 63.140625 
L 35.40625 0 
z
" id="ArialMT-54"/>
    </defs>
    <g style="fill:#808080;" transform="translate(118.99665625 201.25134375)scale(0.14 -0.14)">
     <use xlink:href="#ArialMT-54"/>
     <use x="61.083984375" xlink:href="#ArialMT-56"/>
     <use x="127.783203125" xlink:href="#ArialMT-20"/>
     <use x="155.56640625" xlink:href="#ArialMT-26"/>
     <use x="222.265625" xlink:href="#ArialMT-20"/>
     <use x="250.048828125" xlink:href="#ArialMT-72"/>
     <use x="283.349609375" xlink:href="#ArialMT-61"/>
     <use x="338.96484375" xlink:href="#ArialMT-64"/>
     <use x="394.580078125" xlink:href="#ArialMT-69"/>
     <use x="416.796875" xlink:href="#ArialMT-6f"/>
    </g>
    <!-- ads illegal -->
    <defs>
     <path d="M 4.984375 -4.296875 
L 13.53125 -5.5625 
Q 14.0625 -9.515625 16.5 -11.328125 
Q 19.78125 -13.765625 25.4375 -13.765625 
Q 31.546875 -13.765625 34.859375 -11.328125 
Q 38.1875 -8.890625 39.359375 -4.5 
Q 40.046875 -1.8125 39.984375 6.78125 
Q 34.234375 0 25.640625 0 
Q 14.9375 0 9.078125 7.71875 
Q 3.21875 15.4375 3.21875 26.21875 
Q 3.21875 33.640625 5.90625 39.90625 
Q 8.59375 46.1875 13.6875 49.609375 
Q 18.796875 53.03125 25.6875 53.03125 
Q 34.859375 53.03125 40.828125 45.609375 
L 40.828125 51.859375 
L 48.921875 51.859375 
L 48.921875 7.03125 
Q 48.921875 -5.078125 46.453125 -10.125 
Q 44 -15.1875 38.640625 -18.109375 
Q 33.296875 -21.046875 25.484375 -21.046875 
Q 16.21875 -21.046875 10.5 -16.875 
Q 4.78125 -12.703125 4.984375 -4.296875 
M 12.25 26.859375 
Q 12.25 16.65625 16.296875 11.96875 
Q 20.359375 7.28125 26.46875 7.28125 
Q 32.515625 7.28125 36.609375 11.9375 
Q 40.71875 16.609375 40.71875 26.5625 
Q 40.71875 36.078125 36.5 40.90625 
Q 32.28125 45.75 26.3125 45.75 
Q 20.453125 45.75 16.34375 40.984375 
Q 12.25 36.234375 12.25 26.859375 
" id="ArialMT-67"/>
     <path d="M 6.390625 0 
L 6.390625 71.578125 
L 15.1875 71.578125 
L 15.1875 0 
z
" id="ArialMT-6c"/>
    </defs>
    <g style="fill:#808080;" transform="translate(118.99665625 216.05896875)scale(0.14 -0.14)">
     <use xlink:href="#ArialMT-61"/>
     <use x="55.615234375" xlink:href="#ArialMT-64"/>
     <use x="111.23046875" xlink:href="#ArialMT-73"/>
     <use x="161.23046875" xlink:href="#ArialMT-20"/>
     <use x="189.013671875" xlink:href="#ArialMT-69"/>
     <use x="211.23046875" xlink:href="#ArialMT-6c"/>
     <use x="233.447265625" xlink:href="#ArialMT-6c"/>
     <use x="255.6640625" xlink:href="#ArialMT-65"/>
     <use x="311.279296875" xlink:href="#ArialMT-67"/>
     <use x="366.89453125" xlink:href="#ArialMT-61"/>
     <use x="422.509765625" xlink:href="#ArialMT-6c"/>
    </g>
   </g>
   <g id="patch_7">
    <path d="M 159.897171 97.693913 
Q 134.640076 99.399261 109.382981 101.10461 
L 109.58508 104.097795 
Q 103.46454 102.506497 97.344 100.9152 
Q 103.195075 98.515584 109.04615 96.115968 
L 109.248249 99.109153 
Q 134.505344 97.403805 159.762438 95.698456 
L 159.897171 97.693913 
z
" style="fill:#999999;stroke:#999999;stroke-linecap:round;stroke-width:0.48;"/>
   </g>
   <g id="text_15">
    <g id="patch_8">
     <path d="M 160.068 99.421594 
L 259.328 99.421594 
L 259.328 65.602406 
L 160.068 65.602406 
z
" style="fill:#ffffff;stroke:#ffffff;stroke-linejoin:miter;stroke-width:0.48;"/>
    </g>
    <!-- Health warning -->
    <defs>
     <path d="M 8.015625 0 
L 8.015625 71.578125 
L 17.484375 71.578125 
L 17.484375 42.1875 
L 54.6875 42.1875 
L 54.6875 71.578125 
L 64.15625 71.578125 
L 64.15625 0 
L 54.6875 0 
L 54.6875 33.734375 
L 17.484375 33.734375 
L 17.484375 0 
z
" id="ArialMT-48"/>
    </defs>
    <g style="fill:#808080;" transform="translate(163.008 78.72740625)scale(0.14 -0.14)">
     <use xlink:href="#ArialMT-48"/>
     <use x="72.216796875" xlink:href="#ArialMT-65"/>
     <use x="127.83203125" xlink:href="#ArialMT-61"/>
     <use x="183.447265625" xlink:href="#ArialMT-6c"/>
     <use x="205.6640625" xlink:href="#ArialMT-74"/>
     <use x="233.447265625" xlink:href="#ArialMT-68"/>
     <use x="289.0625" xlink:href="#ArialMT-20"/>
     <use x="316.845703125" xlink:href="#ArialMT-77"/>
     <use x="389.0625" xlink:href="#ArialMT-61"/>
     <use x="444.677734375" xlink:href="#ArialMT-72"/>
     <use x="477.978515625" xlink:href="#ArialMT-6e"/>
     <use x="533.59375" xlink:href="#ArialMT-69"/>
     <use x="555.810546875" xlink:href="#ArialMT-6e"/>
     <use x="611.42578125" xlink:href="#ArialMT-67"/>
    </g>
    <!-- required -->
    <defs>
     <path d="M 40.578125 0 
L 40.578125 7.625 
Q 34.515625 -1.171875 24.125 -1.171875 
Q 19.53125 -1.171875 15.546875 0.578125 
Q 11.578125 2.34375 9.640625 5 
Q 7.71875 7.671875 6.9375 11.53125 
Q 6.390625 14.109375 6.390625 19.734375 
L 6.390625 51.859375 
L 15.1875 51.859375 
L 15.1875 23.09375 
Q 15.1875 16.21875 15.71875 13.8125 
Q 16.546875 10.359375 19.234375 8.375 
Q 21.921875 6.390625 25.875 6.390625 
Q 29.828125 6.390625 33.296875 8.421875 
Q 36.765625 10.453125 38.203125 13.9375 
Q 39.65625 17.4375 39.65625 24.078125 
L 39.65625 51.859375 
L 48.4375 51.859375 
L 48.4375 0 
z
" id="ArialMT-75"/>
     <path d="M 39.65625 -19.875 
L 39.65625 5.515625 
Q 37.59375 2.640625 33.90625 0.734375 
Q 30.21875 -1.171875 26.078125 -1.171875 
Q 16.84375 -1.171875 10.171875 6.203125 
Q 3.515625 13.578125 3.515625 26.421875 
Q 3.515625 34.234375 6.21875 40.421875 
Q 8.9375 46.625 14.078125 49.828125 
Q 19.234375 53.03125 25.390625 53.03125 
Q 35.015625 53.03125 40.53125 44.921875 
L 40.53125 51.859375 
L 48.4375 51.859375 
L 48.4375 -19.875 
z
M 12.546875 26.078125 
Q 12.546875 16.0625 16.75 11.0625 
Q 20.953125 6.0625 26.8125 6.0625 
Q 32.421875 6.0625 36.46875 10.8125 
Q 40.53125 15.578125 40.53125 25.296875 
Q 40.53125 35.640625 36.25 40.859375 
Q 31.984375 46.09375 26.21875 46.09375 
Q 20.515625 46.09375 16.53125 41.234375 
Q 12.546875 36.375 12.546875 26.078125 
" id="ArialMT-71"/>
    </defs>
    <g style="fill:#808080;" transform="translate(163.008 93.69909375)scale(0.14 -0.14)">
     <use xlink:href="#ArialMT-72"/>
     <use x="33.30078125" xlink:href="#ArialMT-65"/>
     <use x="88.916015625" xlink:href="#ArialMT-71"/>
     <use x="144.53125" xlink:href="#ArialMT-75"/>
     <use x="200.146484375" xlink:href="#ArialMT-69"/>
     <use x="222.36328125" xlink:href="#ArialMT-72"/>
     <use x="255.6640625" xlink:href="#ArialMT-65"/>
     <use x="311.279296875" xlink:href="#ArialMT-64"/>
    </g>
   </g>
   <g id="patch_9">
    <path d="M 293.336 218.889307 
Q 293.336 202.70734 293.336 186.525372 
L 290.336 186.525372 
Q 292.336 180.526686 294.336 174.528 
Q 296.336 180.526686 298.336 186.525372 
L 295.336 186.525372 
Q 295.336 202.70734 295.336 218.889307 
L 293.336 218.889307 
z
" style="fill:#999999;stroke:#999999;stroke-linecap:round;stroke-width:0.48;"/>
   </g>
   <g id="text_16">
    <g id="patch_10">
     <path d="M 246.662719 252.617531 
L 342.009281 252.617531 
L 342.009281 219.126469 
L 246.662719 219.126469 
z
" style="fill:#ffffff;stroke:#ffffff;stroke-linejoin:miter;stroke-width:0.48;"/>
    </g>
    <!-- FDA approves -->
    <defs>
     <path d="M 6.59375 -19.875 
L 6.59375 51.859375 
L 14.59375 51.859375 
L 14.59375 45.125 
Q 17.4375 49.078125 21 51.046875 
Q 24.5625 53.03125 29.640625 53.03125 
Q 36.28125 53.03125 41.359375 49.609375 
Q 46.4375 46.1875 49.015625 39.953125 
Q 51.609375 33.734375 51.609375 26.3125 
Q 51.609375 18.359375 48.75 11.984375 
Q 45.90625 5.609375 40.453125 2.21875 
Q 35.015625 -1.171875 29 -1.171875 
Q 24.609375 -1.171875 21.109375 0.6875 
Q 17.625 2.546875 15.375 5.375 
L 15.375 -19.875 
z
M 14.546875 25.640625 
Q 14.546875 15.625 18.59375 10.84375 
Q 22.65625 6.0625 28.421875 6.0625 
Q 34.28125 6.0625 38.453125 11.015625 
Q 42.625 15.96875 42.625 26.375 
Q 42.625 36.28125 38.546875 41.203125 
Q 34.46875 46.140625 28.8125 46.140625 
Q 23.1875 46.140625 18.859375 40.890625 
Q 14.546875 35.640625 14.546875 25.640625 
" id="ArialMT-70"/>
     <path d="M 7.71875 0 
L 7.71875 71.578125 
L 32.375 71.578125 
Q 40.71875 71.578125 45.125 70.5625 
Q 51.265625 69.140625 55.609375 65.4375 
Q 61.28125 60.640625 64.078125 53.1875 
Q 66.890625 45.75 66.890625 36.1875 
Q 66.890625 28.03125 64.984375 21.734375 
Q 63.09375 15.4375 60.109375 11.296875 
Q 57.125 7.171875 53.578125 4.796875 
Q 50.046875 2.4375 45.046875 1.21875 
Q 40.046875 0 33.546875 0 
z
M 17.1875 8.453125 
L 32.46875 8.453125 
Q 39.546875 8.453125 43.578125 9.765625 
Q 47.609375 11.078125 50 13.484375 
Q 53.375 16.84375 55.25 22.53125 
Q 57.125 28.21875 57.125 36.328125 
Q 57.125 47.5625 53.4375 53.59375 
Q 49.75 59.625 44.484375 61.671875 
Q 40.671875 63.140625 32.234375 63.140625 
L 17.1875 63.140625 
z
" id="ArialMT-44"/>
     <path d="M 8.203125 0 
L 8.203125 71.578125 
L 56.5 71.578125 
L 56.5 63.140625 
L 17.671875 63.140625 
L 17.671875 40.96875 
L 51.265625 40.96875 
L 51.265625 32.515625 
L 17.671875 32.515625 
L 17.671875 0 
z
" id="ArialMT-46"/>
     <path d="M 21 0 
L 1.265625 51.859375 
L 10.546875 51.859375 
L 21.6875 20.796875 
Q 23.484375 15.765625 25 10.359375 
Q 26.171875 14.453125 28.265625 20.21875 
L 39.796875 51.859375 
L 48.828125 51.859375 
L 29.203125 0 
z
" id="ArialMT-76"/>
     <path d="M -0.140625 0 
L 27.34375 71.578125 
L 37.546875 71.578125 
L 66.84375 0 
L 56.0625 0 
L 47.703125 21.6875 
L 17.78125 21.6875 
L 9.90625 0 
z
M 20.515625 29.390625 
L 44.78125 29.390625 
L 37.3125 49.21875 
Q 33.890625 58.25 32.234375 64.0625 
Q 30.859375 57.171875 28.375 50.390625 
z
" id="ArialMT-41"/>
    </defs>
    <g style="fill:#808080;" transform="translate(249.60271875 231.92334375)scale(0.14 -0.14)">
     <use xlink:href="#ArialMT-46"/>
     <use x="61.083984375" xlink:href="#ArialMT-44"/>
     <use x="133.30078125" xlink:href="#ArialMT-41"/>
     <use x="199.921875" xlink:href="#ArialMT-20"/>
     <use x="227.705078125" xlink:href="#ArialMT-61"/>
     <use x="283.3203125" xlink:href="#ArialMT-70"/>
     <use x="338.935546875" xlink:href="#ArialMT-70"/>
     <use x="394.55078125" xlink:href="#ArialMT-72"/>
     <use x="427.8515625" xlink:href="#ArialMT-6f"/>
     <use x="483.466796875" xlink:href="#ArialMT-76"/>
     <use x="533.466796875" xlink:href="#ArialMT-65"/>
     <use x="589.08203125" xlink:href="#ArialMT-73"/>
    </g>
    <!-- nicotine gum -->
    <g style="fill:#808080;" transform="translate(249.60271875 246.73096875)scale(0.14 -0.14)">
     <use xlink:href="#ArialMT-6e"/>
     <use x="55.615234375" xlink:href="#ArialMT-69"/>
     <use x="77.83203125" xlink:href="#ArialMT-63"/>
     <use x="127.83203125" xlink:href="#ArialMT-6f"/>
     <use x="183.447265625" xlink:href="#ArialMT-74"/>
     <use x="211.23046875" xlink:href="#ArialMT-69"/>
     <use x="233.447265625" xlink:href="#ArialMT-6e"/>
     <use x="289.0625" xlink:href="#ArialMT-65"/>
     <use x="344.677734375" xlink:href="#ArialMT-20"/>
     <use x="372.4609375" xlink:href="#ArialMT-67"/>
     <use x="428.076171875" xlink:href="#ArialMT-75"/>
     <use x="483.69140625" xlink:href="#ArialMT-6d"/>
    </g>
   </g>
   <g id="patch_11">
    <path d="M 365.448823 136.949533 
Q 359.495499 156.286637 353.542174 175.623742 
L 356.409368 176.506466 
Q 352.732684 181.651633 349.056 186.7968 
Q 348.909759 180.474667 348.763519 174.152535 
L 351.630712 175.035259 
Q 357.584036 155.698155 363.537361 136.36105 
L 365.448823 136.949533 
z
" style="fill:#999999;stroke:#999999;stroke-linecap:round;stroke-width:0.48;"/>
   </g>
   <g id="text_17">
    <g id="patch_12">
     <path d="M 300.268094 136.415681 
L 430.675906 136.415681 
L 430.675906 102.221119 
L 300.268094 102.221119 
z
" style="fill:#ffffff;stroke:#ffffff;stroke-linejoin:miter;stroke-width:0.48;"/>
    </g>
    <!-- Smoking banned on -->
    <defs>
     <path d="M 4.5 23 
L 13.421875 23.78125 
Q 14.0625 18.40625 16.375 14.96875 
Q 18.703125 11.53125 23.578125 9.40625 
Q 28.46875 7.28125 34.578125 7.28125 
Q 39.984375 7.28125 44.140625 8.890625 
Q 48.296875 10.5 50.3125 13.296875 
Q 52.34375 16.109375 52.34375 19.4375 
Q 52.34375 22.796875 50.390625 25.3125 
Q 48.4375 27.828125 43.953125 29.546875 
Q 41.0625 30.671875 31.203125 33.03125 
Q 21.34375 35.40625 17.390625 37.5 
Q 12.25 40.1875 9.734375 44.15625 
Q 7.234375 48.140625 7.234375 53.078125 
Q 7.234375 58.5 10.296875 63.203125 
Q 13.375 67.921875 19.28125 70.359375 
Q 25.203125 72.796875 32.421875 72.796875 
Q 40.375 72.796875 46.453125 70.234375 
Q 52.546875 67.671875 55.8125 62.6875 
Q 59.078125 57.71875 59.328125 51.421875 
L 50.25 50.734375 
Q 49.515625 57.515625 45.28125 60.984375 
Q 41.0625 64.453125 32.8125 64.453125 
Q 24.21875 64.453125 20.28125 61.296875 
Q 16.359375 58.15625 16.359375 53.71875 
Q 16.359375 49.859375 19.140625 47.359375 
Q 21.875 44.875 33.421875 42.265625 
Q 44.96875 39.65625 49.265625 37.703125 
Q 55.515625 34.8125 58.484375 30.390625 
Q 61.46875 25.984375 61.46875 20.21875 
Q 61.46875 14.5 58.203125 9.4375 
Q 54.9375 4.390625 48.796875 1.578125 
Q 42.671875 -1.21875 35.015625 -1.21875 
Q 25.296875 -1.21875 18.71875 1.609375 
Q 12.15625 4.4375 8.421875 10.125 
Q 4.6875 15.828125 4.5 23 
" id="ArialMT-53"/>
     <path d="M 14.703125 0 
L 6.546875 0 
L 6.546875 71.578125 
L 15.328125 71.578125 
L 15.328125 46.046875 
Q 20.90625 53.03125 29.546875 53.03125 
Q 34.328125 53.03125 38.59375 51.09375 
Q 42.875 49.171875 45.625 45.671875 
Q 48.390625 42.1875 49.953125 37.25 
Q 51.515625 32.328125 51.515625 26.703125 
Q 51.515625 13.375 44.921875 6.09375 
Q 38.328125 -1.171875 29.109375 -1.171875 
Q 19.921875 -1.171875 14.703125 6.5 
z
M 14.59375 26.3125 
Q 14.59375 17 17.140625 12.84375 
Q 21.296875 6.0625 28.375 6.0625 
Q 34.125 6.0625 38.328125 11.0625 
Q 42.53125 16.0625 42.53125 25.984375 
Q 42.53125 36.140625 38.5 40.96875 
Q 34.46875 45.796875 28.765625 45.796875 
Q 23 45.796875 18.796875 40.796875 
Q 14.59375 35.796875 14.59375 26.3125 
" id="ArialMT-62"/>
    </defs>
    <g style="fill:#808080;" transform="translate(303.20809375 115.35268125)scale(0.14 -0.14)">
     <use xlink:href="#ArialMT-53"/>
     <use x="66.69921875" xlink:href="#ArialMT-6d"/>
     <use x="150.0" xlink:href="#ArialMT-6f"/>
     <use x="205.615234375" xlink:href="#ArialMT-6b"/>
     <use x="255.615234375" xlink:href="#ArialMT-69"/>
     <use x="277.83203125" xlink:href="#ArialMT-6e"/>
     <use x="333.447265625" xlink:href="#ArialMT-67"/>
     <use x="389.0625" xlink:href="#ArialMT-20"/>
     <use x="416.845703125" xlink:href="#ArialMT-62"/>
     <use x="472.4609375" xlink:href="#ArialMT-61"/>
     <use x="528.076171875" xlink:href="#ArialMT-6e"/>
     <use x="583.69140625" xlink:href="#ArialMT-6e"/>
     <use x="639.306640625" xlink:href="#ArialMT-65"/>
     <use x="694.921875" xlink:href="#ArialMT-64"/>
     <use x="750.537109375" xlink:href="#ArialMT-20"/>
     <use x="778.3203125" xlink:href="#ArialMT-6f"/>
     <use x="833.935546875" xlink:href="#ArialMT-6e"/>
    </g>
    <!-- all domestic flights -->
    <defs>
     <path d="M 8.6875 0 
L 8.6875 45.015625 
L 0.921875 45.015625 
L 0.921875 51.859375 
L 8.6875 51.859375 
L 8.6875 57.375 
Q 8.6875 62.59375 9.625 65.140625 
Q 10.890625 68.5625 14.078125 70.671875 
Q 17.28125 72.796875 23.046875 72.796875 
Q 26.765625 72.796875 31.25 71.921875 
L 29.9375 64.265625 
Q 27.203125 64.75 24.75 64.75 
Q 20.75 64.75 19.09375 63.03125 
Q 17.4375 61.328125 17.4375 56.640625 
L 17.4375 51.859375 
L 27.546875 51.859375 
L 27.546875 45.015625 
L 17.4375 45.015625 
L 17.4375 0 
z
" id="ArialMT-66"/>
    </defs>
    <g style="fill:#808080;" transform="translate(303.20809375 130.52911875)scale(0.14 -0.14)">
     <use xlink:href="#ArialMT-61"/>
     <use x="55.615234375" xlink:href="#ArialMT-6c"/>
     <use x="77.83203125" xlink:href="#ArialMT-6c"/>
     <use x="100.048828125" xlink:href="#ArialMT-20"/>
     <use x="127.83203125" xlink:href="#ArialMT-64"/>
     <use x="183.447265625" xlink:href="#ArialMT-6f"/>
     <use x="239.0625" xlink:href="#ArialMT-6d"/>
     <use x="322.36328125" xlink:href="#ArialMT-65"/>
     <use x="377.978515625" xlink:href="#ArialMT-73"/>
     <use x="427.978515625" xlink:href="#ArialMT-74"/>
     <use x="455.76171875" xlink:href="#ArialMT-69"/>
     <use x="477.978515625" xlink:href="#ArialMT-63"/>
     <use x="527.978515625" xlink:href="#ArialMT-20"/>
     <use x="555.76171875" xlink:href="#ArialMT-66"/>
     <use x="583.544921875" xlink:href="#ArialMT-6c"/>
     <use x="605.76171875" xlink:href="#ArialMT-69"/>
     <use x="627.978515625" xlink:href="#ArialMT-67"/>
     <use x="683.59375" xlink:href="#ArialMT-68"/>
     <use x="739.208984375" xlink:href="#ArialMT-74"/>
     <use x="766.9921875" xlink:href="#ArialMT-73"/>
    </g>
   </g>
   <g id="patch_13">
    <path d="M 436.369183 261.354612 
Q 440.120445 245.145386 443.871707 228.936159 
L 440.948955 228.259754 
Q 444.250478 222.864277 447.552 217.4688 
Q 448.14748 223.766151 448.742959 230.063502 
L 445.820208 229.387096 
Q 442.068946 245.596323 438.317684 261.805549 
L 436.369183 261.354612 
z
" style="fill:#999999;stroke:#999999;stroke-linecap:round;stroke-width:0.48;"/>
   </g>
   <g id="text_18">
    <g id="patch_14">
     <path d="M 358.96925 295.807706 
L 514.24675 295.807706 
L 514.24675 261.817894 
L 358.96925 261.817894 
z
" style="fill:#ffffff;stroke:#ffffff;stroke-linejoin:miter;stroke-width:0.48;"/>
    </g>
    <!-- California bans smoking -->
    <defs>
     <path d="M 58.796875 25.09375 
L 68.265625 22.703125 
Q 65.28125 11.03125 57.546875 4.90625 
Q 49.8125 -1.21875 38.625 -1.21875 
Q 27.046875 -1.21875 19.796875 3.484375 
Q 12.546875 8.203125 8.765625 17.140625 
Q 4.984375 26.078125 4.984375 36.328125 
Q 4.984375 47.515625 9.25 55.828125 
Q 13.53125 64.15625 21.40625 68.46875 
Q 29.296875 72.796875 38.765625 72.796875 
Q 49.515625 72.796875 56.828125 67.328125 
Q 64.15625 61.859375 67.046875 51.953125 
L 57.71875 49.75 
Q 55.21875 57.5625 50.484375 61.125 
Q 45.75 64.703125 38.578125 64.703125 
Q 30.328125 64.703125 24.78125 60.734375 
Q 19.234375 56.78125 16.984375 50.109375 
Q 14.75 43.453125 14.75 36.375 
Q 14.75 27.25 17.40625 20.4375 
Q 20.0625 13.625 25.671875 10.25 
Q 31.296875 6.890625 37.84375 6.890625 
Q 45.796875 6.890625 51.3125 11.46875 
Q 56.84375 16.0625 58.796875 25.09375 
" id="ArialMT-43"/>
    </defs>
    <g style="fill:#808080;" transform="translate(361.90925 275.11351875)scale(0.14 -0.14)">
     <use xlink:href="#ArialMT-43"/>
     <use x="72.216796875" xlink:href="#ArialMT-61"/>
     <use x="127.83203125" xlink:href="#ArialMT-6c"/>
     <use x="150.048828125" xlink:href="#ArialMT-69"/>
     <use x="172.265625" xlink:href="#ArialMT-66"/>
     <use x="200.048828125" xlink:href="#ArialMT-6f"/>
     <use x="255.6640625" xlink:href="#ArialMT-72"/>
     <use x="288.96484375" xlink:href="#ArialMT-6e"/>
     <use x="344.580078125" xlink:href="#ArialMT-69"/>
     <use x="366.796875" xlink:href="#ArialMT-61"/>
     <use x="422.412109375" xlink:href="#ArialMT-20"/>
     <use x="450.1953125" xlink:href="#ArialMT-62"/>
     <use x="505.810546875" xlink:href="#ArialMT-61"/>
     <use x="561.42578125" xlink:href="#ArialMT-6e"/>
     <use x="617.041015625" xlink:href="#ArialMT-73"/>
     <use x="667.041015625" xlink:href="#ArialMT-20"/>
     <use x="694.82421875" xlink:href="#ArialMT-73"/>
     <use x="744.82421875" xlink:href="#ArialMT-6d"/>
     <use x="828.125" xlink:href="#ArialMT-6f"/>
     <use x="883.740234375" xlink:href="#ArialMT-6b"/>
     <use x="933.740234375" xlink:href="#ArialMT-69"/>
     <use x="955.95703125" xlink:href="#ArialMT-6e"/>
     <use x="1011.572265625" xlink:href="#ArialMT-67"/>
    </g>
    <!-- in bars and restaurants -->
    <g style="fill:#808080;" transform="translate(361.90925 290.08520625)scale(0.14 -0.14)">
     <use xlink:href="#ArialMT-69"/>
     <use x="22.216796875" xlink:href="#ArialMT-6e"/>
     <use x="77.83203125" xlink:href="#ArialMT-20"/>
     <use x="105.615234375" xlink:href="#ArialMT-62"/>
     <use x="161.23046875" xlink:href="#ArialMT-61"/>
     <use x="216.845703125" xlink:href="#ArialMT-72"/>
     <use x="250.146484375" xlink:href="#ArialMT-73"/>
     <use x="300.146484375" xlink:href="#ArialMT-20"/>
     <use x="327.9296875" xlink:href="#ArialMT-61"/>
     <use x="383.544921875" xlink:href="#ArialMT-6e"/>
     <use x="439.16015625" xlink:href="#ArialMT-64"/>
     <use x="494.775390625" xlink:href="#ArialMT-20"/>
     <use x="522.55859375" xlink:href="#ArialMT-72"/>
     <use x="555.859375" xlink:href="#ArialMT-65"/>
     <use x="611.474609375" xlink:href="#ArialMT-73"/>
     <use x="661.474609375" xlink:href="#ArialMT-74"/>
     <use x="689.2578125" xlink:href="#ArialMT-61"/>
     <use x="744.873046875" xlink:href="#ArialMT-75"/>
     <use x="800.48828125" xlink:href="#ArialMT-72"/>
     <use x="833.7890625" xlink:href="#ArialMT-61"/>
     <use x="889.404296875" xlink:href="#ArialMT-6e"/>
     <use x="945.01953125" xlink:href="#ArialMT-74"/>
     <use x="972.802734375" xlink:href="#ArialMT-73"/>
    </g>
   </g>
   <g id="text_19">
    <!-- Cigarette smoking among US adults -->
    <defs>
     <path d="M 54.6875 71.578125 
L 64.15625 71.578125 
L 64.15625 30.21875 
Q 64.15625 19.4375 61.71875 13.078125 
Q 59.28125 6.734375 52.90625 2.75 
Q 46.53125 -1.21875 36.1875 -1.21875 
Q 26.125 -1.21875 19.71875 2.25 
Q 13.328125 5.71875 10.59375 12.28125 
Q 7.859375 18.84375 7.859375 30.21875 
L 7.859375 71.578125 
L 17.328125 71.578125 
L 17.328125 30.28125 
Q 17.328125 20.953125 19.0625 16.53125 
Q 20.796875 12.109375 25.015625 9.71875 
Q 29.25 7.328125 35.359375 7.328125 
Q 45.796875 7.328125 50.234375 12.0625 
Q 54.6875 16.796875 54.6875 30.28125 
z
" id="ArialMT-55"/>
    </defs>
    <g style="fill:#262626;" transform="translate(247.951875 46.84)scale(0.14 -0.14)">
     <use xlink:href="#ArialMT-43"/>
     <use x="72.216796875" xlink:href="#ArialMT-69"/>
     <use x="94.43359375" xlink:href="#ArialMT-67"/>
     <use x="150.048828125" xlink:href="#ArialMT-61"/>
     <use x="205.6640625" xlink:href="#ArialMT-72"/>
     <use x="238.96484375" xlink:href="#ArialMT-65"/>
     <use x="294.580078125" xlink:href="#ArialMT-74"/>
     <use x="322.36328125" xlink:href="#ArialMT-74"/>
     <use x="350.146484375" xlink:href="#ArialMT-65"/>
     <use x="405.76171875" xlink:href="#ArialMT-20"/>
     <use x="433.544921875" xlink:href="#ArialMT-73"/>
     <use x="483.544921875" xlink:href="#ArialMT-6d"/>
     <use x="566.845703125" xlink:href="#ArialMT-6f"/>
     <use x="622.4609375" xlink:href="#ArialMT-6b"/>
     <use x="672.4609375" xlink:href="#ArialMT-69"/>
     <use x="694.677734375" xlink:href="#ArialMT-6e"/>
     <use x="750.29296875" xlink:href="#ArialMT-67"/>
     <use x="805.908203125" xlink:href="#ArialMT-20"/>
     <use x="833.69140625" xlink:href="#ArialMT-61"/>
     <use x="889.306640625" xlink:href="#ArialMT-6d"/>
     <use x="972.607421875" xlink:href="#ArialMT-6f"/>
     <use x="1028.22265625" xlink:href="#ArialMT-6e"/>
     <use x="1083.837890625" xlink:href="#ArialMT-67"/>
     <use x="1139.453125" xlink:href="#ArialMT-20"/>
     <use x="1167.236328125" xlink:href="#ArialMT-55"/>
     <use x="1239.453125" xlink:href="#ArialMT-53"/>
     <use x="1306.15234375" xlink:href="#ArialMT-20"/>
     <use x="1333.935546875" xlink:href="#ArialMT-61"/>
     <use x="1389.55078125" xlink:href="#ArialMT-64"/>
     <use x="1445.166015625" xlink:href="#ArialMT-75"/>
     <use x="1500.78125" xlink:href="#ArialMT-6c"/>
     <use x="1522.998046875" xlink:href="#ArialMT-74"/>
     <use x="1550.78125" xlink:href="#ArialMT-73"/>
    </g>
   </g>
  </g>
  <g id="text_20">
   <!-- The US Smoking Rate is at an All-Time Low -->
   <defs>
    <path d="M 17.4375 36.03125 
L 4.984375 38.28125 
Q 7.078125 45.796875 12.203125 49.40625 
Q 17.328125 53.03125 27.4375 53.03125 
Q 36.625 53.03125 41.109375 50.859375 
Q 45.609375 48.6875 47.4375 45.34375 
Q 49.265625 42 49.265625 33.0625 
L 49.125 17.046875 
Q 49.125 10.203125 49.78125 6.953125 
Q 50.4375 3.71875 52.25 0 
L 38.671875 0 
Q 38.140625 1.375 37.359375 4.046875 
Q 37.015625 5.28125 36.859375 5.671875 
Q 33.34375 2.25 29.34375 0.53125 
Q 25.34375 -1.171875 20.796875 -1.171875 
Q 12.796875 -1.171875 8.171875 3.171875 
Q 3.5625 7.515625 3.5625 14.15625 
Q 3.5625 18.5625 5.65625 22 
Q 7.765625 25.4375 11.546875 27.265625 
Q 15.328125 29.109375 22.46875 30.46875 
Q 32.078125 32.28125 35.796875 33.84375 
L 35.796875 35.203125 
Q 35.796875 39.15625 33.84375 40.84375 
Q 31.890625 42.53125 26.46875 42.53125 
Q 22.796875 42.53125 20.75 41.09375 
Q 18.703125 39.65625 17.4375 36.03125 
M 35.796875 24.90625 
Q 33.15625 24.03125 27.4375 22.796875 
Q 21.734375 21.578125 19.96875 20.40625 
Q 17.28125 18.5 17.28125 15.578125 
Q 17.28125 12.703125 19.421875 10.59375 
Q 21.578125 8.5 24.90625 8.5 
Q 28.609375 8.5 31.984375 10.9375 
Q 34.46875 12.796875 35.25 15.484375 
Q 35.796875 17.234375 35.796875 22.171875 
z
" id="Arial-BoldMT-61"/>
    <path d="M 3.609375 23.296875 
L 17.671875 24.65625 
Q 18.953125 17.578125 22.828125 14.25 
Q 26.703125 10.9375 33.296875 10.9375 
Q 40.28125 10.9375 43.8125 13.890625 
Q 47.359375 16.84375 47.359375 20.796875 
Q 47.359375 23.34375 45.875 25.125 
Q 44.390625 26.90625 40.671875 28.21875 
Q 38.140625 29.109375 29.109375 31.34375 
Q 17.484375 34.234375 12.796875 38.421875 
Q 6.203125 44.34375 6.203125 52.828125 
Q 6.203125 58.296875 9.296875 63.0625 
Q 12.40625 67.828125 18.234375 70.3125 
Q 24.078125 72.796875 32.328125 72.796875 
Q 45.796875 72.796875 52.609375 66.890625 
Q 59.421875 60.984375 59.765625 51.125 
L 45.3125 50.484375 
Q 44.390625 56 41.328125 58.421875 
Q 38.28125 60.84375 32.171875 60.84375 
Q 25.875 60.84375 22.3125 58.25 
Q 20.015625 56.59375 20.015625 53.8125 
Q 20.015625 51.265625 22.171875 49.46875 
Q 24.90625 47.171875 35.453125 44.671875 
Q 46 42.1875 51.046875 39.515625 
Q 56.109375 36.859375 58.953125 32.25 
Q 61.8125 27.640625 61.8125 20.84375 
Q 61.8125 14.703125 58.390625 9.328125 
Q 54.984375 3.953125 48.734375 1.34375 
Q 42.484375 -1.265625 33.15625 -1.265625 
Q 19.578125 -1.265625 12.296875 5 
Q 5.03125 11.28125 3.609375 23.296875 
" id="Arial-BoldMT-53"/>
    <path d="M 7.171875 71.578125 
L 21.625 71.578125 
L 21.625 32.8125 
Q 21.625 23.578125 22.171875 20.84375 
Q 23.09375 16.453125 26.578125 13.796875 
Q 30.078125 11.140625 36.140625 11.140625 
Q 42.28125 11.140625 45.40625 13.640625 
Q 48.53125 16.15625 49.171875 19.8125 
Q 49.8125 23.484375 49.8125 31.984375 
L 49.8125 71.578125 
L 64.265625 71.578125 
L 64.265625 33.984375 
Q 64.265625 21.09375 63.09375 15.765625 
Q 61.921875 10.453125 58.765625 6.78125 
Q 55.609375 3.125 50.328125 0.953125 
Q 45.0625 -1.21875 36.578125 -1.21875 
Q 26.3125 -1.21875 21.015625 1.140625 
Q 15.71875 3.515625 12.640625 7.296875 
Q 9.578125 11.078125 8.59375 15.234375 
Q 7.171875 21.390625 7.171875 33.40625 
z
" id="Arial-BoldMT-55"/>
    <path d="M 7.171875 0 
L 7.171875 71.578125 
L 20.90625 71.578125 
L 20.90625 0 
z
" id="Arial-BoldMT-6c"/>
    <path d="M 5.90625 -3.421875 
L 21.578125 -5.328125 
Q 21.96875 -8.0625 23.390625 -9.078125 
Q 25.34375 -10.546875 29.546875 -10.546875 
Q 34.90625 -10.546875 37.59375 -8.9375 
Q 39.40625 -7.859375 40.328125 -5.46875 
Q 40.96875 -3.765625 40.96875 0.828125 
L 40.96875 8.40625 
Q 34.8125 0 25.4375 0 
Q 14.984375 0 8.890625 8.84375 
Q 4.109375 15.828125 4.109375 26.21875 
Q 4.109375 39.265625 10.375 46.140625 
Q 16.65625 53.03125 25.984375 53.03125 
Q 35.59375 53.03125 41.84375 44.578125 
L 41.84375 51.859375 
L 54.6875 51.859375 
L 54.6875 5.328125 
Q 54.6875 -3.859375 53.171875 -8.390625 
Q 51.65625 -12.9375 48.921875 -15.515625 
Q 46.1875 -18.109375 41.625 -19.578125 
Q 37.0625 -21.046875 30.078125 -21.046875 
Q 16.890625 -21.046875 11.375 -16.53125 
Q 5.859375 -12.015625 5.859375 -5.078125 
Q 5.859375 -4.390625 5.90625 -3.421875 
M 18.171875 27 
Q 18.171875 18.75 21.359375 14.90625 
Q 24.5625 11.078125 29.25 11.078125 
Q 34.28125 11.078125 37.75 15.015625 
Q 41.21875 18.953125 41.21875 26.65625 
Q 41.21875 34.71875 37.890625 38.625 
Q 34.578125 42.53125 29.5 42.53125 
Q 24.5625 42.53125 21.359375 38.6875 
Q 18.171875 34.859375 18.171875 27 
" id="Arial-BoldMT-67"/>
    <path d="M 37.203125 16.5 
L 50.875 14.203125 
Q 48.25 6.6875 42.546875 2.75 
Q 36.859375 -1.171875 28.328125 -1.171875 
Q 14.796875 -1.171875 8.296875 7.671875 
Q 3.171875 14.75 3.171875 25.53125 
Q 3.171875 38.421875 9.90625 45.71875 
Q 16.65625 53.03125 26.953125 53.03125 
Q 38.53125 53.03125 45.21875 45.390625 
Q 51.90625 37.75 51.609375 21.96875 
L 17.234375 21.96875 
Q 17.390625 15.875 20.5625 12.46875 
Q 23.734375 9.078125 28.46875 9.078125 
Q 31.6875 9.078125 33.875 10.828125 
Q 36.078125 12.59375 37.203125 16.5 
M 37.984375 30.375 
Q 37.84375 36.328125 34.90625 39.421875 
Q 31.984375 42.53125 27.78125 42.53125 
Q 23.296875 42.53125 20.359375 39.265625 
Q 17.4375 35.984375 17.484375 30.375 
z
" id="Arial-BoldMT-65"/>
    <path d="M 5.609375 19.09375 
L 5.609375 32.8125 
L 32.5625 32.8125 
L 32.5625 19.09375 
z
" id="Arial-BoldMT-2d"/>
    <path d="M 20.84375 71.578125 
L 20.84375 45.265625 
Q 27.484375 53.03125 36.71875 53.03125 
Q 41.453125 53.03125 45.265625 51.265625 
Q 49.078125 49.515625 51 46.78125 
Q 52.9375 44.046875 53.640625 40.71875 
Q 54.34375 37.40625 54.34375 30.421875 
L 54.34375 0 
L 40.625 0 
L 40.625 27.390625 
Q 40.625 35.546875 39.84375 37.734375 
Q 39.0625 39.9375 37.078125 41.234375 
Q 35.109375 42.53125 32.125 42.53125 
Q 28.71875 42.53125 26.03125 40.859375 
Q 23.34375 39.203125 22.09375 35.859375 
Q 20.84375 32.515625 20.84375 25.984375 
L 20.84375 0 
L 7.125 0 
L 7.125 71.578125 
z
" id="Arial-BoldMT-68"/>
    <path d="M 4 26.65625 
Q 4 33.5 7.375 39.890625 
Q 10.75 46.296875 16.921875 49.65625 
Q 23.09375 53.03125 30.71875 53.03125 
Q 42.484375 53.03125 50 45.390625 
Q 57.515625 37.75 57.515625 26.078125 
Q 57.515625 14.3125 49.921875 6.5625 
Q 42.328125 -1.171875 30.8125 -1.171875 
Q 23.6875 -1.171875 17.21875 2.046875 
Q 10.75 5.28125 7.375 11.5 
Q 4 17.71875 4 26.65625 
M 18.0625 25.921875 
Q 18.0625 18.21875 21.71875 14.109375 
Q 25.390625 10.015625 30.765625 10.015625 
Q 36.140625 10.015625 39.765625 14.109375 
Q 43.40625 18.21875 43.40625 26.03125 
Q 43.40625 33.640625 39.765625 37.734375 
Q 36.140625 41.84375 30.765625 41.84375 
Q 25.390625 41.84375 21.71875 37.734375 
Q 18.0625 33.640625 18.0625 25.921875 
" id="Arial-BoldMT-6f"/>
    <path d="M 7.671875 0 
L 7.671875 71 
L 22.125 71 
L 22.125 12.0625 
L 58.0625 12.0625 
L 58.0625 0 
z
" id="Arial-BoldMT-4c"/>
    <path d="M 2.34375 14.796875 
L 16.109375 16.890625 
Q 17 12.890625 19.671875 10.8125 
Q 22.359375 8.734375 27.203125 8.734375 
Q 32.515625 8.734375 35.203125 10.6875 
Q 37.015625 12.0625 37.015625 14.359375 
Q 37.015625 15.921875 36.03125 16.9375 
Q 35.015625 17.921875 31.453125 18.75 
Q 14.84375 22.40625 10.40625 25.4375 
Q 4.25 29.640625 4.25 37.109375 
Q 4.25 43.84375 9.5625 48.4375 
Q 14.890625 53.03125 26.078125 53.03125 
Q 36.71875 53.03125 41.890625 49.5625 
Q 47.078125 46.09375 49.03125 39.3125 
L 36.078125 36.921875 
Q 35.25 39.9375 32.921875 41.546875 
Q 30.609375 43.171875 26.3125 43.171875 
Q 20.90625 43.171875 18.5625 41.65625 
Q 17 40.578125 17 38.875 
Q 17 37.40625 18.359375 36.375 
Q 20.21875 35.015625 31.171875 32.515625 
Q 42.140625 30.03125 46.484375 26.421875 
Q 50.78125 22.75 50.78125 16.21875 
Q 50.78125 9.078125 44.828125 3.953125 
Q 38.875 -1.171875 27.203125 -1.171875 
Q 16.609375 -1.171875 10.421875 3.125 
Q 4.25 7.421875 2.34375 14.796875 
" id="Arial-BoldMT-73"/>
    <path d="M 71.828125 0 
L 56.109375 0 
L 49.859375 16.265625 
L 21.234375 16.265625 
L 15.328125 0 
L 0 0 
L 27.875 71.578125 
L 43.171875 71.578125 
z
M 45.21875 28.328125 
L 35.359375 54.890625 
L 25.6875 28.328125 
z
" id="Arial-BoldMT-41"/>
    <path d="M 7.171875 58.890625 
L 7.171875 71.578125 
L 20.90625 71.578125 
L 20.90625 58.890625 
z
M 7.171875 0 
L 7.171875 51.859375 
L 20.90625 51.859375 
L 20.90625 0 
z
" id="Arial-BoldMT-69"/>
    <path d="M 54.34375 0 
L 40.625 0 
L 40.625 26.46875 
Q 40.625 34.859375 39.75 37.328125 
Q 38.875 39.796875 36.890625 41.15625 
Q 34.90625 42.53125 32.125 42.53125 
Q 28.5625 42.53125 25.734375 40.578125 
Q 22.90625 38.625 21.84375 35.390625 
Q 20.796875 32.171875 20.796875 23.484375 
L 20.796875 0 
L 7.078125 0 
L 7.078125 51.859375 
L 19.828125 51.859375 
L 19.828125 44.234375 
Q 26.609375 53.03125 36.921875 53.03125 
Q 41.453125 53.03125 45.203125 51.390625 
Q 48.96875 49.75 50.890625 47.203125 
Q 52.828125 44.671875 53.578125 41.453125 
Q 54.34375 38.234375 54.34375 32.234375 
z
" id="Arial-BoldMT-6e"/>
    <path d="M 30.953125 51.859375 
L 30.953125 40.921875 
L 21.578125 40.921875 
L 21.578125 20.015625 
Q 21.578125 13.671875 21.84375 12.625 
Q 22.125 11.578125 23.078125 10.890625 
Q 24.03125 10.203125 25.390625 10.203125 
Q 27.296875 10.203125 30.90625 11.53125 
L 32.078125 0.875 
Q 27.296875 -1.171875 21.234375 -1.171875 
Q 17.53125 -1.171875 14.546875 0.0625 
Q 11.578125 1.3125 10.1875 3.296875 
Q 8.796875 5.28125 8.25 8.640625 
Q 7.8125 11.03125 7.8125 18.3125 
L 7.8125 40.921875 
L 1.515625 40.921875 
L 1.515625 51.859375 
L 7.8125 51.859375 
L 7.8125 62.15625 
L 21.578125 70.171875 
L 21.578125 51.859375 
z
" id="Arial-BoldMT-74"/>
    <path id="Arial-BoldMT-20"/>
    <path d="M 6.15625 51.859375 
L 18.796875 51.859375 
L 18.796875 44.78125 
Q 25.59375 53.03125 34.96875 53.03125 
Q 39.9375 53.03125 43.59375 50.96875 
Q 47.265625 48.921875 49.609375 44.78125 
Q 53.03125 48.921875 56.984375 50.96875 
Q 60.9375 53.03125 65.4375 53.03125 
Q 71.140625 53.03125 75.09375 50.703125 
Q 79.046875 48.390625 81 43.890625 
Q 82.421875 40.578125 82.421875 33.15625 
L 82.421875 0 
L 68.703125 0 
L 68.703125 29.640625 
Q 68.703125 37.359375 67.28125 39.59375 
Q 65.375 42.53125 61.421875 42.53125 
Q 58.546875 42.53125 56 40.765625 
Q 53.46875 39.015625 52.34375 35.625 
Q 51.21875 32.234375 51.21875 24.90625 
L 51.21875 0 
L 37.5 0 
L 37.5 28.421875 
Q 37.5 35.984375 36.765625 38.171875 
Q 36.03125 40.375 34.484375 41.453125 
Q 32.953125 42.53125 30.328125 42.53125 
Q 27.15625 42.53125 24.609375 40.8125 
Q 22.078125 39.109375 20.96875 35.890625 
Q 19.875 32.671875 19.875 25.203125 
L 19.875 0 
L 6.15625 0 
z
" id="Arial-BoldMT-6d"/>
    <path d="M 23.390625 0 
L 23.390625 59.46875 
L 2.15625 59.46875 
L 2.15625 71.578125 
L 59.03125 71.578125 
L 59.03125 59.46875 
L 37.84375 59.46875 
L 37.84375 0 
z
" id="Arial-BoldMT-54"/>
    <path d="M 7.328125 0 
L 7.328125 71.578125 
L 37.75 71.578125 
Q 49.21875 71.578125 54.421875 69.640625 
Q 59.625 67.71875 62.75 62.78125 
Q 65.875 57.859375 65.875 51.515625 
Q 65.875 43.453125 61.125 38.203125 
Q 56.390625 32.953125 46.96875 31.59375 
Q 51.65625 28.859375 54.703125 25.578125 
Q 57.765625 22.3125 62.9375 13.96875 
L 71.6875 0 
L 54.390625 0 
L 43.953125 15.578125 
Q 38.375 23.921875 36.328125 26.09375 
Q 34.28125 28.265625 31.984375 29.078125 
Q 29.6875 29.890625 24.703125 29.890625 
L 21.78125 29.890625 
L 21.78125 0 
z
M 21.78125 41.3125 
L 32.46875 41.3125 
Q 42.875 41.3125 45.453125 42.1875 
Q 48.046875 43.0625 49.515625 45.203125 
Q 50.984375 47.359375 50.984375 50.59375 
Q 50.984375 54.203125 49.046875 56.421875 
Q 47.125 58.640625 43.609375 59.234375 
Q 41.84375 59.46875 33.0625 59.46875 
L 21.78125 59.46875 
z
" id="Arial-BoldMT-52"/>
    <path d="M 6.6875 0 
L 6.6875 71.578125 
L 20.40625 71.578125 
L 20.40625 33.59375 
L 36.46875 51.859375 
L 53.375 51.859375 
L 35.640625 32.90625 
L 54.640625 0 
L 39.84375 0 
L 26.8125 23.296875 
L 20.40625 16.609375 
L 20.40625 0 
z
" id="Arial-BoldMT-6b"/>
    <path d="M 16.84375 0 
L 0.4375 51.859375 
L 13.765625 51.859375 
L 23.484375 17.875 
L 32.421875 51.859375 
L 45.65625 51.859375 
L 54.296875 17.875 
L 64.203125 51.859375 
L 77.734375 51.859375 
L 61.078125 0 
L 47.90625 0 
L 38.96875 33.34375 
L 30.171875 0 
z
" id="Arial-BoldMT-77"/>
   </defs>
   <g style="fill:#262626;" transform="translate(112.65 25.92)scale(0.24 -0.24)">
    <use xlink:href="#Arial-BoldMT-54"/>
    <use x="61.083984375" xlink:href="#Arial-BoldMT-68"/>
    <use x="122.16796875" xlink:href="#Arial-BoldMT-65"/>
    <use x="177.783203125" xlink:href="#Arial-BoldMT-20"/>
    <use x="205.56640625" xlink:href="#Arial-BoldMT-55"/>
    <use x="277.783203125" xlink:href="#Arial-BoldMT-53"/>
    <use x="344.482421875" xlink:href="#Arial-BoldMT-20"/>
    <use x="372.265625" xlink:href="#Arial-BoldMT-53"/>
    <use x="438.96484375" xlink:href="#Arial-BoldMT-6d"/>
    <use x="527.880859375" xlink:href="#Arial-BoldMT-6f"/>
    <use x="588.96484375" xlink:href="#Arial-BoldMT-6b"/>
    <use x="644.580078125" xlink:href="#Arial-BoldMT-69"/>
    <use x="672.36328125" xlink:href="#Arial-BoldMT-6e"/>
    <use x="733.447265625" xlink:href="#Arial-BoldMT-67"/>
    <use x="794.53125" xlink:href="#Arial-BoldMT-20"/>
    <use x="822.314453125" xlink:href="#Arial-BoldMT-52"/>
    <use x="894.53125" xlink:href="#Arial-BoldMT-61"/>
    <use x="950.146484375" xlink:href="#Arial-BoldMT-74"/>
    <use x="983.447265625" xlink:href="#Arial-BoldMT-65"/>
    <use x="1039.0625" xlink:href="#Arial-BoldMT-20"/>
    <use x="1066.845703125" xlink:href="#Arial-BoldMT-69"/>
    <use x="1094.62890625" xlink:href="#Arial-BoldMT-73"/>
    <use x="1150.244140625" xlink:href="#Arial-BoldMT-20"/>
    <use x="1178.02734375" xlink:href="#Arial-BoldMT-61"/>
    <use x="1233.642578125" xlink:href="#Arial-BoldMT-74"/>
    <use x="1266.943359375" xlink:href="#Arial-BoldMT-20"/>
    <use x="1294.7265625" xlink:href="#Arial-BoldMT-61"/>
    <use x="1350.341796875" xlink:href="#Arial-BoldMT-6e"/>
    <use x="1411.42578125" xlink:href="#Arial-BoldMT-20"/>
    <use x="1439.162109375" xlink:href="#Arial-BoldMT-41"/>
    <use x="1511.37890625" xlink:href="#Arial-BoldMT-6c"/>
    <use x="1539.162109375" xlink:href="#Arial-BoldMT-6c"/>
    <use x="1566.9453125" xlink:href="#Arial-BoldMT-2d"/>
    <use x="1600.24609375" xlink:href="#Arial-BoldMT-54"/>
    <use x="1661.314453125" xlink:href="#Arial-BoldMT-69"/>
    <use x="1689.09765625" xlink:href="#Arial-BoldMT-6d"/>
    <use x="1778.013671875" xlink:href="#Arial-BoldMT-65"/>
    <use x="1833.62890625" xlink:href="#Arial-BoldMT-20"/>
    <use x="1861.412109375" xlink:href="#Arial-BoldMT-4c"/>
    <use x="1922.49609375" xlink:href="#Arial-BoldMT-6f"/>
    <use x="1983.580078125" xlink:href="#Arial-BoldMT-77"/>
   </g>
  </g>
  <g id="text_21">
   <!-- Data source: https://www.cdc.gov/tobacco/data_statistics/tables/trends/cig_smoking/ (US CDC) -->
   <defs>
    <path d="M -1.515625 -19.875 
L -1.515625 -13.53125 
L 56.734375 -13.53125 
L 56.734375 -19.875 
z
" id="ArialMT-5f"/>
    <path d="M 0 -1.21875 
L 20.75 72.796875 
L 27.78125 72.796875 
L 7.078125 -1.21875 
z
" id="ArialMT-2f"/>
    <path d="M 9.03125 41.84375 
L 9.03125 51.859375 
L 19.046875 51.859375 
L 19.046875 41.84375 
z
M 9.03125 0 
L 9.03125 10.015625 
L 19.046875 10.015625 
L 19.046875 0 
z
" id="ArialMT-3a"/>
    <path d="M 9.078125 0 
L 9.078125 10.015625 
L 19.09375 10.015625 
L 19.09375 0 
z
" id="ArialMT-2e"/>
    <path d="M 23.390625 -21.046875 
Q 16.109375 -11.859375 11.078125 0.4375 
Q 6.0625 12.75 6.0625 25.921875 
Q 6.0625 37.546875 9.8125 48.1875 
Q 14.203125 60.546875 23.390625 72.796875 
L 29.6875 72.796875 
Q 23.78125 62.640625 21.875 58.296875 
Q 18.890625 51.5625 17.1875 44.234375 
Q 15.09375 35.109375 15.09375 25.875 
Q 15.09375 2.390625 29.6875 -21.046875 
z
" id="ArialMT-28"/>
    <path d="M 12.359375 -21.046875 
L 6.0625 -21.046875 
Q 20.65625 2.390625 20.65625 25.875 
Q 20.65625 35.0625 18.5625 44.09375 
Q 16.890625 51.421875 13.921875 58.15625 
Q 12.015625 62.546875 6.0625 72.796875 
L 12.359375 72.796875 
Q 21.53125 60.546875 25.921875 48.1875 
Q 29.6875 37.546875 29.6875 25.921875 
Q 29.6875 12.75 24.625 0.4375 
Q 19.578125 -11.859375 12.359375 -21.046875 
" id="ArialMT-29"/>
   </defs>
   <g style="fill:#262626;" transform="translate(149.37265625 401.76)scale(0.1 -0.1)">
    <use xlink:href="#ArialMT-44"/>
    <use x="72.216796875" xlink:href="#ArialMT-61"/>
    <use x="127.83203125" xlink:href="#ArialMT-74"/>
    <use x="155.615234375" xlink:href="#ArialMT-61"/>
    <use x="211.23046875" xlink:href="#ArialMT-20"/>
    <use x="239.013671875" xlink:href="#ArialMT-73"/>
    <use x="289.013671875" xlink:href="#ArialMT-6f"/>
    <use x="344.62890625" xlink:href="#ArialMT-75"/>
    <use x="400.244140625" xlink:href="#ArialMT-72"/>
    <use x="433.544921875" xlink:href="#ArialMT-63"/>
    <use x="483.544921875" xlink:href="#ArialMT-65"/>
    <use x="539.16015625" xlink:href="#ArialMT-3a"/>
    <use x="566.943359375" xlink:href="#ArialMT-20"/>
    <use x="594.7265625" xlink:href="#ArialMT-68"/>
    <use x="650.341796875" xlink:href="#ArialMT-74"/>
    <use x="678.125" xlink:href="#ArialMT-74"/>
    <use x="705.908203125" xlink:href="#ArialMT-70"/>
    <use x="761.5234375" xlink:href="#ArialMT-73"/>
    <use x="811.5234375" xlink:href="#ArialMT-3a"/>
    <use x="839.306640625" xlink:href="#ArialMT-2f"/>
    <use x="867.08984375" xlink:href="#ArialMT-2f"/>
    <use x="894.873046875" xlink:href="#ArialMT-77"/>
    <use x="967.08984375" xlink:href="#ArialMT-77"/>
    <use x="1039.306640625" xlink:href="#ArialMT-77"/>
    <use x="1111.4453125" xlink:href="#ArialMT-2e"/>
    <use x="1139.228515625" xlink:href="#ArialMT-63"/>
    <use x="1189.228515625" xlink:href="#ArialMT-64"/>
    <use x="1244.84375" xlink:href="#ArialMT-63"/>
    <use x="1294.84375" xlink:href="#ArialMT-2e"/>
    <use x="1322.626953125" xlink:href="#ArialMT-67"/>
    <use x="1378.2421875" xlink:href="#ArialMT-6f"/>
    <use x="1433.857421875" xlink:href="#ArialMT-76"/>
    <use x="1483.857421875" xlink:href="#ArialMT-2f"/>
    <use x="1511.640625" xlink:href="#ArialMT-74"/>
    <use x="1539.423828125" xlink:href="#ArialMT-6f"/>
    <use x="1595.0390625" xlink:href="#ArialMT-62"/>
    <use x="1650.654296875" xlink:href="#ArialMT-61"/>
    <use x="1706.26953125" xlink:href="#ArialMT-63"/>
    <use x="1756.26953125" xlink:href="#ArialMT-63"/>
    <use x="1806.26953125" xlink:href="#ArialMT-6f"/>
    <use x="1861.884765625" xlink:href="#ArialMT-2f"/>
    <use x="1889.66796875" xlink:href="#ArialMT-64"/>
    <use x="1945.283203125" xlink:href="#ArialMT-61"/>
    <use x="2000.8984375" xlink:href="#ArialMT-74"/>
    <use x="2028.681640625" xlink:href="#ArialMT-61"/>
    <use x="2084.296875" xlink:href="#ArialMT-5f"/>
    <use x="2139.912109375" xlink:href="#ArialMT-73"/>
    <use x="2189.912109375" xlink:href="#ArialMT-74"/>
    <use x="2217.6953125" xlink:href="#ArialMT-61"/>
    <use x="2273.310546875" xlink:href="#ArialMT-74"/>
    <use x="2301.09375" xlink:href="#ArialMT-69"/>
    <use x="2323.310546875" xlink:href="#ArialMT-73"/>
    <use x="2373.310546875" xlink:href="#ArialMT-74"/>
    <use x="2401.09375" xlink:href="#ArialMT-69"/>
    <use x="2423.310546875" xlink:href="#ArialMT-63"/>
    <use x="2473.310546875" xlink:href="#ArialMT-73"/>
    <use x="2523.310546875" xlink:href="#ArialMT-2f"/>
    <use x="2551.09375" xlink:href="#ArialMT-74"/>
    <use x="2578.876953125" xlink:href="#ArialMT-61"/>
    <use x="2634.4921875" xlink:href="#ArialMT-62"/>
    <use x="2690.107421875" xlink:href="#ArialMT-6c"/>
    <use x="2712.32421875" xlink:href="#ArialMT-65"/>
    <use x="2767.939453125" xlink:href="#ArialMT-73"/>
    <use x="2817.939453125" xlink:href="#ArialMT-2f"/>
    <use x="2845.72265625" xlink:href="#ArialMT-74"/>
    <use x="2873.505859375" xlink:href="#ArialMT-72"/>
    <use x="2906.806640625" xlink:href="#ArialMT-65"/>
    <use x="2962.421875" xlink:href="#ArialMT-6e"/>
    <use x="3018.037109375" xlink:href="#ArialMT-64"/>
    <use x="3073.65234375" xlink:href="#ArialMT-73"/>
    <use x="3123.65234375" xlink:href="#ArialMT-2f"/>
    <use x="3151.435546875" xlink:href="#ArialMT-63"/>
    <use x="3201.435546875" xlink:href="#ArialMT-69"/>
    <use x="3223.65234375" xlink:href="#ArialMT-67"/>
    <use x="3279.267578125" xlink:href="#ArialMT-5f"/>
    <use x="3334.8828125" xlink:href="#ArialMT-73"/>
    <use x="3384.8828125" xlink:href="#ArialMT-6d"/>
    <use x="3468.18359375" xlink:href="#ArialMT-6f"/>
    <use x="3523.798828125" xlink:href="#ArialMT-6b"/>
    <use x="3573.798828125" xlink:href="#ArialMT-69"/>
    <use x="3596.015625" xlink:href="#ArialMT-6e"/>
    <use x="3651.630859375" xlink:href="#ArialMT-67"/>
    <use x="3707.24609375" xlink:href="#ArialMT-2f"/>
    <use x="3735.029296875" xlink:href="#ArialMT-20"/>
    <use x="3762.8125" xlink:href="#ArialMT-28"/>
    <use x="3796.11328125" xlink:href="#ArialMT-55"/>
    <use x="3868.330078125" xlink:href="#ArialMT-53"/>
    <use x="3935.029296875" xlink:href="#ArialMT-20"/>
    <use x="3962.8125" xlink:href="#ArialMT-43"/>
    <use x="4035.029296875" xlink:href="#ArialMT-44"/>
    <use x="4107.24609375" xlink:href="#ArialMT-43"/>
    <use x="4179.462890625" xlink:href="#ArialMT-29"/>
   </g>
  </g>
  <g id="text_22">
   <!-- ChartYourWorld.org -->
   <defs>
    <path d="M 20.21875 0 
L 1.21875 71.578125 
L 10.9375 71.578125 
L 21.828125 24.65625 
Q 23.578125 17.28125 24.859375 10.015625 
Q 27.59375 21.484375 28.078125 23.25 
L 41.703125 71.578125 
L 53.125 71.578125 
L 63.375 35.359375 
Q 67.234375 21.875 68.953125 10.015625 
Q 70.3125 16.796875 72.515625 25.59375 
L 83.734375 71.578125 
L 93.265625 71.578125 
L 73.640625 0 
L 64.5 0 
L 49.421875 54.546875 
Q 47.515625 61.375 47.171875 62.9375 
Q 46.046875 58.015625 45.0625 54.546875 
L 29.890625 0 
z
" id="ArialMT-57"/>
    <path d="M 27.875 0 
L 27.875 30.328125 
L 0.296875 71.578125 
L 11.8125 71.578125 
L 25.921875 50 
Q 29.828125 43.953125 33.203125 37.890625 
Q 36.421875 43.5 41.015625 50.53125 
L 54.890625 71.578125 
L 65.921875 71.578125 
L 37.359375 30.328125 
L 37.359375 0 
z
" id="ArialMT-59"/>
   </defs>
   <g style="fill:#262626;" transform="translate(306.66 423.36)scale(0.12 -0.12)">
    <use xlink:href="#ArialMT-43"/>
    <use x="72.216796875" xlink:href="#ArialMT-68"/>
    <use x="127.83203125" xlink:href="#ArialMT-61"/>
    <use x="183.447265625" xlink:href="#ArialMT-72"/>
    <use x="216.748046875" xlink:href="#ArialMT-74"/>
    <use x="244.53125" xlink:href="#ArialMT-59"/>
    <use x="311.08984375" xlink:href="#ArialMT-6f"/>
    <use x="366.705078125" xlink:href="#ArialMT-75"/>
    <use x="422.3203125" xlink:href="#ArialMT-72"/>
    <use x="455.62109375" xlink:href="#ArialMT-57"/>
    <use x="549.990234375" xlink:href="#ArialMT-6f"/>
    <use x="605.60546875" xlink:href="#ArialMT-72"/>
    <use x="638.90625" xlink:href="#ArialMT-6c"/>
    <use x="661.123046875" xlink:href="#ArialMT-64"/>
    <use x="716.73828125" xlink:href="#ArialMT-2e"/>
    <use x="744.521484375" xlink:href="#ArialMT-6f"/>
    <use x="800.13671875" xlink:href="#ArialMT-72"/>
    <use x="833.4375" xlink:href="#ArialMT-67"/>
   </g>
  </g>
 </g>
 <defs>
  <clipPath id="p2974a800f9">
   <rect height="306.72" width="547.2" x="86.4" y="51.84"/>
  </clipPath>
 </defs>
</svg>
